<?xml version="1.0" standalone="no"?>
<!DOCTYPE svg PUBLIC "-//W3C//DTD SVG 1.1//EN" "http://www.w3.org/Graphics/SVG/1.1/DTD/svg11.dtd" >
<svg xmlns="http://www.w3.org/2000/svg">
<metadata>Generated by IcoMoon</metadata>
<defs>
<font id="icomoon" horiz-adv-x="1024">
<font-face units-per-em="1024" ascent="960" descent="-64" />
<missing-glyph horiz-adv-x="1024" />
<glyph unicode="&#x20;" horiz-adv-x="512" d="" />
<glyph unicode="&#xe900;" glyph-name="calendar1_bold" d="M750.4 746.4h-72.4v6c0 19.6-16 35.6-35.6 35.6s-35.6-16-35.6-35.6v-6h-189.6v6c0 19.6-16 35.6-35.6 35.6-9.6 0-18.4-3.6-25.2-10.4s-10.4-15.6-10.4-25.2v-6h-72.4c-50.8 0-92-41.2-92-92v-454.4c0-50.4 41.2-92 92-92h476.8c50.8 0 92 41.2 92 92v454.4c0 50.8-41.2 92-92 92zM770.8 200c0-11.2-9.2-20.4-20.4-20.4h-476.8c-11.2 0-20.4 9.2-20.4 20.4v293.6h517.6v-293.6zM381.6 633.6c19.6 0 35.6 16 35.6 35.6v5.6h189.6v-5.6c0-19.6 16-35.6 35.6-35.6 20 0 36 16 35.6 35.6v5.6h72.4c11.2 0 20.4-9.2 20.4-20.4v-89.2h-517.6v89.2c0 11.2 9.2 20.4 20.4 20.4h72.4v-5.6c0-19.6 16-35.6 35.6-35.6z" />
<glyph unicode="&#xe901;" glyph-name="calendar1_light" d="M808.4 712.4c-2 2-4 3.6-6 5.2-14 11.6-32.4 18.8-52 18.8v0h-82.4v16c0 14-11.6 25.6-25.6 25.6s-25.6-11.2-25.6-25.6v-16h-209.6v16.4c0 14-11.6 25.6-25.6 25.6-6.8 0-13.2-2.8-18-7.6-4.8-5.2-7.6-11.6-7.6-18.4v-16h-82.4c-45.2 0-82-36.8-82-82v-454.4c0-45.2 36.8-82 82-82h476.8c45.2 0 82 36.8 82 82v454.4c0 22.8-9.2 43.2-24 58zM750.4 169.6h-476.8c-16.8 0-30.4 13.6-30.4 30.4v303.6h537.6v-303.6c0-16.8-13.6-30.4-30.4-30.4zM381.6 643.6c14 0 25.6 11.6 25.6 26v15.2h209.6v-15.6c0-14 11.2-25.6 25.6-25.6s26 11.6 25.6 25.6v15.6h82.4c16.8 0 30.4-13.6 30.4-30.4v-99.2h-537.6v99.2c0 16.8 13.6 30.4 30.4 30.4h82.4v-15.6c0-14 11.2-25.6 25.6-25.6z" />
<glyph unicode="&#xe902;" glyph-name="calendar1_medium" d="M805.2 720.8c-1.2 0.8-2 1.6-3.2 2.4-14.4 10.8-32 17.2-51.6 17.2v0h-78.4v12c0 16.4-13.2 29.6-29.6 29.6s-29.6-13.2-29.6-29.6v-12h-201.2v12.4c0 16.4-13.2 29.6-29.6 29.6-8 0-15.6-3.2-21.2-8.8s-8.8-13.2-8.8-21.2v-12h-78.4c-47.2 0-86-38.4-86-86v-454.4c0-47.2 38.4-86 86-86h476.8c47.6 0 86 38.4 86 86v454.4c0 26.4-12 50.4-31.2 66.4zM750.4 173.6h-476.8c-14.4 0-26.4 11.6-26.4 26.4v299.6h529.6v-299.6c0-14.4-11.6-26.4-26.4-26.4zM381.6 639.6c16.4 0 29.6 13.2 30 30v11.2h201.2v-11.6c0-16.4 13.2-29.6 29.6-29.6s30 13.2 29.6 29.6v11.6h78.4c14.4 0 26.4-11.6 26.4-26.4v-95.2h-529.6v95.2c0 14.4 11.6 26.4 26.4 26.4h78.4v-11.6c0-16.4 13.2-29.6 29.6-29.6z" />
<glyph unicode="&#xe903;" glyph-name="calendar2_bold" d="M750.4 746.4h-72.4v6c0 19.6-16 35.6-35.6 35.6s-35.6-16-35.6-35.6v-6h-189.6v6c0 19.6-16 35.6-35.6 35.6-9.6 0-18.4-3.6-25.2-10.4s-10.4-15.6-10.4-25.2v-6h-72.4c-50.8 0-92-41.2-92-92v-454.4c0-50.4 41.2-92 92-92h476.8c50.8 0 92 41.2 92 92v454.4c0 50.8-41.2 92-92 92zM770.8 200c0-11.2-9.2-20.4-20.4-20.4h-476.8c-11.2 0-20.4 9.2-20.4 20.4v293.6h517.6v-293.6zM381.6 633.6c19.6 0 35.6 16 35.6 35.6v5.6h189.6v-5.6c0-19.6 16-35.6 35.6-35.6 20 0 36 16 35.6 35.6v5.6h72.4c11.2 0 20.4-9.2 20.4-20.4v-89.2h-517.6v89.2c0 11.2 9.2 20.4 20.4 20.4h72.4v-5.6c0-19.6 16-35.6 35.6-35.6zM316 400.4h13.2c19.6 0 35.6 16 35.6 35.6 0 9.6-3.6 18.4-10.4 25.2s-15.6 10.4-25.2 10.4h-13.2c-19.6 0-35.6-16-35.6-35.6s16-35.6 35.6-35.6zM410.8 400.4h13.2c9.6 0 18.4 3.6 25.2 10.4s10.4 15.6 10.4 25.2c0 19.6-16 35.6-35.6 35.6h-13.2c-19.6 0-35.6-16-35.6-35.6 0-9.6 3.6-18.4 10.4-25.2s15.6-10.4 25.2-10.4zM505.2 400.4h13.2c19.6 0 35.6 16 35.6 35.6 0 9.6-3.6 18.4-10.4 25.2s-15.6 10.4-25.2 10.4h-13.2c-9.6 0-18.4-3.6-25.2-10.4s-10.4-15.6-10.4-25.2c0-9.6 3.6-18.4 10.4-25.2s15.6-10.4 25.2-10.4zM600 400.4h13.2c19.6 0 35.6 16 35.6 35.6s-16 35.6-35.6 35.6h-13.2c-9.6 0-18.4-3.6-25.2-10.4s-10.4-15.6-10.4-25.2c0-19.6 16-35.6 35.6-35.6zM694.8 400.4h13.2c9.6 0 18.4 3.6 25.2 10.4s10.4 15.6 10.4 25.2c0 19.6-16 35.6-35.6 35.6h-13.2c-19.6 0-35.6-16-35.6-35.6 0-9.6 3.6-18.4 10.4-25.2s15.6-10.4 25.2-10.4zM316 301.6h13.2c19.6 0 35.6 16 35.6 35.6s-16 35.6-35.6 35.6h-13.2c-19.6 0-35.6-16-35.6-35.6s16-35.6 35.6-35.6zM410.8 301.6h13.2c19.6 0 35.6 16 35.6 35.6s-16 35.6-35.6 35.6h-13.2c-19.6 0-35.6-16-35.6-35.6s16-35.6 35.6-35.6zM505.2 301.6h13.2c20 0 35.6 16 35.6 35.6s-16 35.6-35.6 35.6h-13.2c-19.6 0-35.6-16-35.6-35.6s16-35.6 35.6-35.6zM600 301.6h13.2c19.6 0 35.6 16 35.6 35.6s-16 35.6-35.6 35.6h-13.2c-19.6 0-35.6-16-35.6-35.6s16-35.6 35.6-35.6zM694.8 301.6h13.2c19.6 0 35.6 16 35.6 35.6s-16 35.6-35.6 35.6h-13.2c-19.6 0-35.6-16-35.6-35.6s16-35.6 35.6-35.6zM329.2 274h-14.8c-17.6-1.6-31.2-15.2-32.8-32.8-0.8-9.6 2.4-18.8 8.4-26 2.4-3.2 5.6-5.6 8.8-7.6l-3.2-5.2h33.6c19.6 0 35.6 16.4 35.6 36s-16 35.6-35.6 35.6zM410.8 202.8h13.2c19.6 0 35.6 16 35.6 35.6s-16 35.6-35.6 35.6h-13.2c-19.6 0-35.6-16-35.6-35.6s16-35.6 35.6-35.6zM505.2 202.8h13.2c20 0 35.6 16 35.6 35.6s-16 35.6-35.6 35.6h-13.2c-19.6 0-35.6-16-35.6-35.6s16-35.6 35.6-35.6zM600 202.8h13.2c19.6 0 35.6 16 35.6 35.6s-16 35.6-35.6 35.6h-13.2c-19.6 0-35.6-16-35.6-35.6s16-35.6 35.6-35.6z" />
<glyph unicode="&#xe904;" glyph-name="calendar2_light" d="M808.4 712.4c-2 2-4 3.6-6 5.2-14 11.6-32.4 18.8-52 18.8v0h-82.4v16c0 14-11.6 25.6-25.6 25.6s-25.6-11.2-25.6-25.6v-16h-209.6v16.4c0 14-11.6 25.6-25.6 25.6-6.8 0-13.2-2.8-18-7.6-4.8-5.2-7.6-11.6-7.6-18.4v-16h-82.4c-45.2 0-82-36.8-82-82v-454.4c0-45.2 36.8-82 82-82h476.8c45.2 0 82 36.8 82 82v454.4c0 22.8-9.2 43.2-24 58zM750.4 169.6h-476.8c-16.8 0-30.4 13.6-30.4 30.4v303.6h537.6v-303.6c0-16.8-13.6-30.4-30.4-30.4zM381.6 643.6c14 0 25.6 11.6 25.6 26v15.2h209.6v-15.6c0-14 11.2-25.6 25.6-25.6s26 11.6 25.6 25.6v15.6h82.4c16.8 0 30.4-13.6 30.4-30.4v-99.2h-537.6v99.2c0 16.8 13.6 30.4 30.4 30.4h82.4v-15.6c0-14 11.2-25.6 25.6-25.6zM328.8 462h-13.2c-14 0-25.6-11.6-25.6-25.6 0-7.2 2.8-13.6 7.6-18.4 5.2-4.8 11.6-7.6 18.4-7.6h13.2c14 0 25.6 11.6 25.6 25.6 0 7.2-2.8 13.6-7.6 18.4-5.2 4.8-11.6 7.6-18.4 7.6zM410.8 410.4h13.2c6.8 0 13.2 2.4 17.6 7.2 4.8 5.2 7.6 11.6 7.6 18.4 0 7.2-2.8 13.6-7.6 18.4s-11.2 7.6-18 7.6h-13.2c-14 0-25.6-11.6-25.6-25.6 0-7.2 2.8-13.6 7.6-18.4 5.2-4.8 11.6-7.6 18.4-7.6zM518.8 462.4h-13.2c-7.2 0-13.6-2.8-18.4-7.6-4.8-5.2-7.6-11.6-7.6-18.4 0-7.2 2.8-13.6 7.6-18.4s11.2-7.6 18-7.6c0 0 0 0 0 0.4h14c14 0 25.6 11.6 25.6 25.6 0 7.2-2.8 13.6-7.6 18.4-5.2 4.8-11.6 7.6-18.4 7.6zM613.6 462.4h-13.2c-7.2 0-13.6-2.8-18.4-7.6-4.8-5.2-7.6-11.6-7.6-18.4 0-7.2 2.8-13.6 7.6-18.4s11.2-7.6 18-7.6h13.6c6.8 0 13.2 2.8 18 7.6 4.8 5.2 7.6 11.6 7.6 18.4 0 7.2-2.8 13.6-7.6 18.4s-11.2 7.6-18 7.6zM694.8 410.4h13.2c6.8 0 13.2 2.4 17.6 7.2 4.8 5.2 7.6 11.6 7.6 18.4 0 7.2-2.8 13.6-7.6 18.4s-11.2 7.6-18 7.6h-13.2c-14 0-25.6-11.6-25.6-25.6 0-7.2 2.8-13.6 7.6-18.4 5.2-4.8 11.6-7.6 18.4-7.6zM329.2 362.8h-13.2c-14 0-25.6-11.6-25.6-25.6s11.2-25.6 25.6-25.6h13.2c14.4 0 25.6 11.2 25.6 25.6 0 14-11.2 25.6-25.6 25.6zM424 362.8h-13.2c-14 0-25.6-11.6-25.6-25.6s11.2-25.6 25.6-25.6h13.2c14.4 0 25.6 11.6 25.6 25.6s-11.2 25.6-25.6 25.6zM518.4 362.8h-13.2c-14 0-25.6-11.6-25.6-25.6s11.2-25.6 25.6-25.6h13.2c14.4 0 25.6 11.6 25.6 25.6s-11.2 25.6-25.6 25.6zM613.2 362.8h-13.2c-14 0-25.6-11.6-25.6-25.6s11.2-25.6 25.6-25.6h13.2c14.4 0 25.6 11.2 25.6 25.6 0 14-11.2 25.6-25.6 25.6zM708 362.8h-13.2c-14 0-25.6-11.6-25.6-25.6s11.2-25.6 25.6-25.6h13.2c14.4 0 25.6 11.6 25.6 25.6s-11.2 25.6-25.6 25.6zM329.2 264h-14c-12.8-1.2-22.4-10.8-23.6-23.6-0.4-6.8 1.6-13.6 6-18.8 4.4-4.8 10.4-8 16.8-8.8v-0.4h14.8c14 0 25.6 12 25.6 26s-11.2 25.6-25.6 25.6zM424 264h-13.2c-14 0-25.6-11.6-25.6-25.6s11.2-25.6 25.6-25.6h13.2c14.4 0 25.6 11.6 25.6 25.6s-11.2 25.6-25.6 25.6zM518.4 264h-13.2c-14 0-25.6-11.6-25.6-25.6s11.2-25.6 25.6-25.6h13.2c14.4 0 25.6 11.6 25.6 25.6s-11.2 25.6-25.6 25.6zM613.2 264h-13.2c-14 0-25.6-11.6-25.6-25.6s11.2-25.6 25.6-25.6h13.2c14.4 0 25.6 11.2 25.6 25.6 0 14-11.2 25.6-25.6 25.6z" />
<glyph unicode="&#xe905;" glyph-name="calendar2_medium" d="M805.2 720.8c-1.2 0.8-2 1.6-3.2 2.4-14.4 10.8-32 17.2-51.6 17.2v0h-78.4v12c0 16.4-13.2 29.6-29.6 29.6s-29.6-13.2-29.6-29.6v-12h-201.2v12.4c0 16.4-13.2 29.6-29.6 29.6-8 0-15.6-3.2-21.2-8.8s-8.8-13.2-8.8-21.2v-12h-78.4c-47.2 0-86-38.4-86-86v-454.4c0-47.2 38.4-86 86-86h476.8c47.6 0 86 38.4 86 86v454.4c0 26.4-12 50.4-31.2 66.4zM750.4 173.6h-476.8c-14.4 0-26.4 11.6-26.4 26.4v299.6h529.6v-299.6c0-14.4-11.6-26.4-26.4-26.4zM381.6 639.6c16.4 0 29.6 13.2 30 30v11.2h201.2v-11.6c0-16.4 13.2-29.6 29.6-29.6s30 13.2 29.6 29.6v11.6h78.4c14.4 0 26.4-11.6 26.4-26.4v-95.2h-529.6v95.2c0 14.4 11.6 26.4 26.4 26.4h78.4v-11.6c0-16.4 13.2-29.6 29.6-29.6zM328.8 466h-13.2c-16.4 0-29.6-13.2-29.6-29.6 0-8 3.2-15.6 8.8-21.2s13.2-8.8 21.2-8.8h13.2c16.4 0 29.6 13.2 29.6 29.6 0 8-3.2 15.6-8.8 21.2s-13.2 8.8-21.2 8.8zM423.6 466h-13.2c-16.4 0-29.6-13.2-29.6-29.6 0-8 3.2-15.6 8.8-21.2s13.2-8.8 21.2-8.8h13.2c8 0 15.6 2.8 20.8 8.4 5.6 5.6 8.8 13.2 8.8 21.2s-3.2 15.6-8.8 21.2c-6 5.6-13.2 8.8-21.2 8.8zM518.4 466.4h-13.2c-8 0-15.6-3.2-21.2-8.8s-8.8-13.2-8.8-21.2 3.2-15.6 8.8-21.2c6-5.6 13.2-8.8 21.2-8.8 0 0 0 0 0 0.4h13.6c16.4 0 29.6 13.2 29.6 29.6 0 8-3.2 15.6-8.8 21.2s-13.2 8.8-21.2 8.8zM613.2 466.4h-13.2c-8 0-15.6-3.2-21.2-8.8s-8.8-13.2-8.8-21.2 3.2-15.6 8.8-21.2c6-5.6 13.2-8.8 21.2-8.8h13.6c7.6 0 15.2 3.2 20.8 8.8s8.8 13.2 8.8 21.2-3.2 15.6-8.8 21.2c-6 5.6-13.2 8.8-21.2 8.8zM707.6 466h-13.2c-16.4 0-29.6-13.2-29.6-29.6 0-8 3.2-15.6 8.8-21.2s13.2-8.8 21.2-8.8h13.2c8 0 15.2 2.8 20.8 8.4s8.8 13.2 8.8 21.2-3.2 15.6-8.8 21.2c-6 5.6-13.2 8.8-21.2 8.8zM329.2 366.8h-13.2c-16.4 0-29.6-13.2-29.6-29.6s13.2-29.6 29.6-29.6h13.2c16.4 0 29.6 13.2 29.6 29.6s-13.2 29.6-29.6 29.6zM424 366.8h-13.2c-16.4 0-29.6-13.2-29.6-29.6s13.2-29.6 29.6-29.6h13.2c16.4 0 29.6 13.2 29.6 29.6s-13.2 29.6-29.6 29.6zM518.4 366.8h-13.2c-16.4 0-29.6-13.2-29.6-29.6s13.2-29.6 29.6-29.6h13.2c16.4 0 29.6 13.2 29.6 29.6s-13.2 29.6-29.6 29.6zM613.2 366.8h-13.2c-16.4 0-29.6-13.2-29.6-29.6s13.2-29.6 29.6-29.6h13.2c16.4 0 29.6 13.2 29.6 29.6s-13.2 29.6-29.6 29.6zM708 366.8h-13.2c-16.4 0-29.6-13.2-29.6-29.6s13.2-29.6 29.6-29.6h13.2c16.4 0 29.6 13.2 29.6 29.6s-13.2 29.6-29.6 29.6zM329.2 267.6h-14c-14.4-1.2-26-12.8-27.2-27.2-0.8-8 1.6-15.6 6.8-21.6 3.6-4 8-7.2 13.2-8.8l-1.2-1.6h22.4c16.4 0 29.6 13.2 29.6 29.6s-13.2 29.6-29.6 29.6zM424 268h-13.2c-16.4 0-29.6-13.2-29.6-29.6s13.2-29.6 29.6-29.6h13.2c16.4 0 29.6 13.2 29.6 29.6s-13.2 29.6-29.6 29.6zM518.4 268h-13.2c-16.4 0-29.6-13.2-29.6-29.6s13.2-29.6 29.6-29.6h13.2c16.4 0 29.6 13.2 29.6 29.6s-13.2 29.6-29.6 29.6zM613.2 268h-13.2c-16.4 0-29.6-13.2-29.6-29.6s13.2-29.6 29.6-29.6h13.2c16.4 0 29.6 13.2 29.6 29.6s-13.2 29.6-29.6 29.6z" />
<glyph unicode="&#xe906;" glyph-name="close_bold" d="M859.2 151.2l-296.4 296.8 296.4 296.4-50.8 50.4-296.4-296.4-296.8 297.2-50.8-50.8 297.2-296.8-297.2-297.2 50.8-50.4 296.8 296.8 296.8-296.4z" />
<glyph unicode="&#xe907;" glyph-name="close_light" d="M845.2 744.4l-36.4 36.4-296.4-296.4-297.2 296.8-36.4-36.4 297.2-296.8-297.2-297.2 36.4-36.4 297.2 297.2 296.4-296.4 36.4 36-296.4 296.8z" />
<glyph unicode="&#xe908;" glyph-name="close_medium" d="M850.8 744.4l-42 42-296.8-296.4-296.8 296.8-42-42 297.2-296.8-297.2-297.2 42-42 297.2 297.2 296.4-296.4 42 41.6-296.8 296.8z" />
<glyph unicode="&#xe909;" glyph-name="closed-2_bold" d="M562.8 448l279.6 279.6c13.6 14.4 13.6 36.4-0.4 50.4l-0.4 0.4c-14.4 13.6-36.8 13.6-50.4-0.4l-279.2-279.2-279.6 279.6c-14.4 13.6-36.8 13.6-50.4-0.4l-0.4-0.4c-13.6-14.4-13.6-36.4 0.4-50.4l279.2-279.2-279.6-279.6c-13.6-14.4-13.6-36 0-50 6.4-6.8 15.6-10.8 25.6-10.8s18.8 3.6 25.6 10.4l279.2 279.2 279.2-278.8c6.4-6.8 15.6-10.8 25.6-10.8 9.6 0 18.4 3.6 25.2 10.4l0.4 0.4c13.6 14.4 13.6 36.8-0.4 50.4l-279.2 279.2z" />
<glyph unicode="&#xe90a;" glyph-name="closed-2_light" d="M548.8 448l286.4 286.4c9.6 10 9.6 26.4-0.4 36.4-10.4 10-26.8 9.6-36.4 0l-286-286-286.8 286.4c-10 9.6-26.4 9.6-36.4-0.4-10-10.4-9.6-26.8 0-36.4l286.4-286.4-286.8-286.8c-9.6-10-9.6-26.4 0-36 4.8-4.8 11.2-7.6 18.4-7.6s13.6 2.8 18.4 7.6l286.4 286.4 286.4-286.4c4.8-4.8 11.2-7.6 18.4-7.6 6.8 0 13.2 2.8 18 8 10 10.4 9.6 26.8 0 36.4l-286 286z" />
<glyph unicode="&#xe90b;" glyph-name="closed-2_medium" d="M554 448l284 284c11.6 12 11.2 30.4-0.4 42-12 11.2-30.4 11.2-42-0.4l-283.6-283.6-284 284c-11.6 11.2-30.4 11.2-42-0.4-11.2-12-10.8-30.8 0.4-42l283.6-283.6-284-284c-11.2-12-11.2-30 0-41.6 5.2-5.6 12.8-8.8 21.2-8.8s15.6 3.2 21.2 8.8l283.6 283.6 283.6-283.6c5.2-5.6 12.8-8.8 21.2-8.8 8 0 15.2 3.2 21.2 8.8 11.2 12 10.8 30.8-0.4 42l-283.6 283.6z" />
<glyph unicode="&#xe90c;" glyph-name="closed-rounded_bold" d="M696.4 581.6l-50.8 50.4-133.6-133.6-134 134-50.4-50.4 134-134-134.4-134 50.8-50.8 134 134 133.6-133.6 50.8 50.8-133.6 133.6zM512 788c-187.6 0-340-152.4-340-340s152.4-340 340-340 340 152.4 340 340c0 187.6-152.4 340-340 340zM512 179.2c-148.4 0-268.8 120.4-268.8 268.8s120.4 268.8 268.8 268.8c148.4 0 268.8-120.4 268.8-268.8s-120.4-268.8-268.8-268.8z" />
<glyph unicode="&#xe90d;" glyph-name="closed-rounded_light" d="M646 618l-133.6-133.6-134.4 134-36.4-36.4 134.4-134-134-134 36.4-36.4 133.6 134 133.6-133.6 36.4 36.4-133.2 133.6 133.6 133.6zM512 778c-182 0-330-148-330-330s148-330 330-330 330 148 330 330-148 330-330 330zM512 169.2c-153.6 0-278.8 125.2-278.8 278.8s125.2 278.8 278.8 278.8 278.8-125.2 278.8-278.8c0-153.6-125.2-278.8-278.8-278.8z" />
<glyph unicode="&#xe90e;" glyph-name="closed-rounded_medium" d="M645.6 623.6l-133.6-133.6-134 134-42-42 134-134-134-134 42.4-42.4 134 134 133.2-133.2 42 42-133.2 133.2 133.6 134zM512 782c-184 0-334-150-334-334s150-334 334-334 334 150 334 334-150 334-334 334zM512 173.2c-151.6 0-274.8 123.2-274.8 274.8s123.2 274.8 274.8 274.8 274.8-123.2 274.8-274.8c0-151.6-123.2-274.8-274.8-274.8z" />
<glyph unicode="&#xe90f;" glyph-name="comment1_bold" d="M720 788h-415.6c-64 0-116-52-116-116v-353.2c0-64 52-116 116-116h2.8v-59.2c0-19.6 16-35.6 35.6-35.6h0.4c6 0 12 1.2 17.2 4l157.2 90.8h202.4c64 0 116 52 116 116v353.2c0 64-52 116-116 116zM489.2 270l-111.2-64.4v33.2c0 19.6-16 35.6-35.6 35.6h-38.4c-24.4 0-44.4 20-44.4 44.4v353.2c0 12 4.8 23.2 13.2 31.6s19.6 13.2 31.6 13.2l414.8-0.4c24.4 0 44.4-20 44.4-44.4v-352.8c0-24.4-20-44.4-44.4-44.4h-212c-6.4 0-12.4-1.6-18-4.8zM657.6 680.4h-291.2c-19.6 0-35.6-16-35.6-35.6 0-9.6 3.6-18.4 10.4-25.2s15.6-10.4 25.2-10.4h291.2c19.6 0 35.6 16 35.6 35.6 0 9.6-3.6 18.4-10.4 25.2s-15.6 10.4-25.2 10.4zM657.6 542.4h-291.2c-19.6 0-35.6-16-35.6-35.6 0-9.6 3.6-18.4 10.4-25.2s15.6-10.4 25.2-10.4h291.2c19.6 0 35.6 16 35.6 35.6 0 9.6-3.6 18.4-10.4 25.2s-15.6 10.4-25.2 10.4zM657.6 404.4h-291.2c-19.6 0-35.6-16-35.6-35.6s16-35.6 35.6-35.6h291.2c19.6 0 35.6 16 35.6 35.6s-16 35.6-35.6 35.6z" />
<glyph unicode="&#xe910;" glyph-name="comment1_light" d="M720 778h-415.6c-58.4 0-106-47.6-106-106v-353.2c0-58.4 47.6-106 106-106h12.8v-69.2c0-14 11.6-25.6 25.6-25.6h0.4c4.4 0 8.4 0.8 12.8 3.2l159.2 91.6h204.8c58.4 0 106 47.6 106 106v353.2c0 58.4-47.6 106-106 106zM342.8 264.4h-38.4c-30 0-54.4 24.4-54.4 54.4v353.2c0 30.4 24.4 54.8 54.4 54.8l415.2-0.4c30 0 54.4-24.4 54.4-54.4v-353.2c0-30-24.4-54.4-54.4-54.4h-212c-4.4 0-8.8-1.2-12.8-3.6l-126.4-72.8v50.8c0 14-11.2 25.6-25.6 25.6zM366.4 619.2h291.2c14 0 25.6 11.6 25.6 25.6 0 7.2-2.8 13.6-7.6 18.4-5.2 4.8-11.6 7.6-18.4 7.6h-291.2c-14 0-25.6-11.6-25.6-25.6 0-7.2 2.4-13.6 7.6-18.4s11.6-7.6 18.4-7.6zM366.4 481.2h291.2c14 0 25.6 11.6 25.6 25.6 0 7.2-2.8 13.6-7.6 18.4-5.2 4.8-11.6 7.6-18.4 7.6h-291.2c-14 0-25.6-11.6-25.6-25.6 0-7.2 2.4-13.6 7.6-18.4s11.6-7.6 18.4-7.6zM683.2 368.8c0 14-11.2 25.6-25.6 25.6h-291.2c-14 0-25.6-11.6-25.6-25.6s11.2-25.6 25.6-25.6h291.2c14 0 25.6 11.6 25.6 25.6z" />
<glyph unicode="&#xe911;" glyph-name="comment1_medium" d="M720 782h-415.6c-60.8 0-110-49.2-110-110v-353.2c0-60.4 49.2-110 110-110h8.8v-65.2c0-16.4 13.2-29.6 29.6-29.6h0.4c4.8 0 10 1.2 14.8 3.6l158 91.2h204c60.4 0 110 49.2 110 110v353.2c0 60.4-49.2 110-110 110zM342.8 268.4h-38.4c-27.6 0-50.4 22.4-50.4 50.4v353.2c0 28 22.4 50.8 50.4 50.8l415.2-0.4c27.6 0 50.4-22.8 50.4-50.4v-353.2c0-27.6-22.4-50.4-50.4-50.4h-212c-5.2 0-10.4-1.6-14.8-4l-120.4-69.2v43.6c0 16.4-13.2 29.6-29.6 29.6zM366.4 615.2h291.2c16.4 0 29.6 13.2 30 29.2 0 8-3.2 15.6-8.8 21.2s-13.2 8.8-21.2 8.8h-291.2c-16.4 0-29.6-13.2-29.6-29.6s13.2-29.6 29.6-29.6zM366.4 477.2h291.2c16.4 0 29.6 13.2 30 29.2 0 8-3.2 15.6-8.8 21.2s-13.2 8.8-21.2 8.8h-291.2c-16.4 0-29.6-13.2-29.6-29.6s13.2-29.6 29.6-29.6zM687.2 368.8c0 16.4-13.2 29.6-29.6 29.6h-291.2c-16.4 0-29.6-13.2-29.6-29.6s13.2-29.6 29.6-29.6h291.2c16.4 0 29.6 13.2 29.6 29.6z" />
<glyph unicode="&#xe912;" glyph-name="comment2_bold" d="M720 770h-415.6c-54 0-98-44-98-98v-352.8c0-54 44-98 98-98h126l76.4-88.8c3.6-4 8.4-6.4 13.6-6.4s10 2 13.6 6l76.4 88.8h109.6c54 0 98 44 98 98v353.2c0 54-44 98-98 98zM781.6 318.8c0-34.4-28-62.4-62.4-62.4h-117.6c-5.2-0.4-10.4-2.4-13.6-6.4l-68-79.6-68 79.6c-3.6 4-8.4 6.4-13.6 6.4h-134.4c-34.4 0-62.4 28-62.4 62.4v353.2c0 0.4 0 0.4 0 0.4 0 34.4 28.4 62.4 62.8 62.4l414.8-0.4c34.4 0 62.4-28 62.4-62.4v-353.2z" />
<glyph unicode="&#xe913;" glyph-name="comment2_light" d="M720 778h-415.6c-58.4 0-106-47.6-106-106v-352.8c0-58.4 47.6-106 106-106h122.4l74-86c4.8-6 12-9.2 19.6-9.2s14.8 3.2 19.6 8.8l74.4 86h105.6c58.4 0 106 47.6 106 106v353.2c0 58.4-47.6 106-106 106zM304.4 726.8l415.2-0.4c30 0 54.4-24.4 54.4-54.4v-352.8c0-30-24.4-54.4-54.4-54.4h-117.6c-7.6 0-14.8-3.2-19.6-8.8l-62-72.4-62 72.4c-4.8 5.6-12 8.8-19.6 8.8h-134.4c-30 0-54.4 24.4-54.4 54.4v353.2c0 14.4 5.6 28 16 38.4 10 10.4 24 16 38.4 16z" />
<glyph unicode="&#xe914;" glyph-name="comment2_medium" d="M720 782h-415.6c-60.8 0-110-49.2-110-110v-352.8c0-60.4 49.2-110 110-110h120.4l72.8-84.8c6-6.8 14-10.4 22.8-10.4s16.8 3.6 22.8 10l72.8 84.8h104c60.4 0 110 49.2 110 110v353.2c0 60.4-49.2 110-110 110zM769.2 672v-352.8c0-27.6-22.4-50.4-50.4-50.4h-117.6c-8.4 0-16.8-3.6-22.4-10.4l-58.8-68.8-58.8 68.8c-5.6 6.8-13.6 10.4-22.4 10.4h-134.4c-27.6 0-50.4 22.4-50.4 50.4v353.2c0 13.2 5.2 26 14.8 35.6s22 14.8 35.6 14.8l414.4-0.4c27.6 0 50.4-22.8 50.4-50.4z" />
<glyph unicode="&#xe915;" glyph-name="comment3_bold" d="M512 770.8c-197.2 0-357.6-130.8-357.6-292 0-92.8 54-180 144.8-234.8-7.2-32.4-23.6-61.2-50.8-87.6-3.2-3.6-5.2-8-5.2-12.8 0-9.6 7.6-17.6 17.6-17.6 70.4 0.8 127.6 23.6 170.4 68.4 26.8-5.2 53.6-7.6 80.8-7.6 197.2 0 357.6 131.2 357.6 292s-160.4 292-357.6 292zM512 222.4c-28 0-56 2.8-83.6 8.8-6.8 1.2-14-1.2-18-6.8-28.4-32-64-51.6-108.4-59.2 18 25.2 29.6 54.4 34.4 85.2 1.2 7.2-2.4 14.4-8.8 18-86 48-137.6 126.4-137.6 210 0 141.6 144.4 256.4 322 256.4s322-114.8 322-256-144.4-256.4-322-256.4z" />
<glyph unicode="&#xe916;" glyph-name="comment3_light" d="M512.4 778.4c-201.6 0-365.6-134.4-365.6-300 0-93.2 53.6-182 143.6-238.4-7.6-28.4-23.2-54-47.6-78-4.8-4.8-7.6-11.6-7.6-18.4 0-14 11.2-25.6 25.6-25.6h2.4c70 0.8 127.6 23.6 171.2 67.2 25.6-4.4 52-6.8 78-6.8 201.6 0 365.6 134.4 365.6 300s-164 300-365.6 300zM404.4 229.2c-23.2-26-51.2-43.2-85.2-52.4 12.8 22 21.2 46.8 25.2 72 1.6 10.8-3.6 21.2-12.8 26.4-83.6 46.8-133.6 122.8-133.6 203.2 0 136.8 140.8 248.4 314 248.4s314-111.2 313.6-248.4c0-136.8-140.8-248.4-314-248.4-27.2 0-54.8 3.2-81.6 8.8-9.6 2-19.6-2-25.6-9.6z" />
<glyph unicode="&#xe917;" glyph-name="comment3_medium" d="M512 770.8c-197.2 0-357.6-130.8-357.6-292 0-92.8 54-180 144.8-234.8-7.2-32.4-23.6-61.2-50.8-87.6-3.2-3.6-5.2-8-5.2-12.8 0-9.6 7.6-17.6 17.6-17.6 70.4 0.8 127.6 23.6 170.4 68.4 26.8-5.2 53.6-7.6 80.8-7.6 197.2 0 357.6 131.2 357.6 292s-160.4 292-357.6 292zM512 222.4c-28 0-56 2.8-83.6 8.8-6.8 1.2-14-1.2-18-6.8-28.4-32-64-51.6-108.4-59.2 18 25.2 29.6 54.4 34.4 85.2 1.2 7.2-2.4 14.4-8.8 18-86 48-137.6 126.4-137.6 210 0 141.6 144.4 256.4 322 256.4s322-114.8 322-256-144.4-256.4-322-256.4z" />
<glyph unicode="&#xe918;" glyph-name="deleted-1_bold" d="M742.4 692.8h-108.8v62.4c0 32.4-22.8 58.4-50.4 58.4h-141.6c-27.6 0-50.4-26.4-50.4-58.4v-62.4h-109.6c-28 0-50.8-22.8-50.8-50.8v-30.8c0-28 22.8-50.8 50.8-50.8h2.8v-400c0-43.2 34.8-78 78-78h299.2c21.2 0 40.8 8 55.6 23.2 14.4 14.8 22.4 34 22 54.4v400.4h3.2c14 0 27.2 5.6 36.4 15.2 9.6 10 14.8 22.4 14.4 35.6v30.8c0 28-22.8 50.8-50.8 50.8zM566 747.6v-24.8h-107.2v24.8h107.2zM672 160.4c0-5.6-4.8-10.4-10.4-10.4h-299.2c-5.6 0-10.4 4.8-10.4 10.4v400h320v-400zM298 627.6v22.4h428v-22.4h-428zM380.4 522h67.6v-336.4h-67.6v336.4zM478.4 522h67.6v-336.4h-67.6v336.4zM576 522h67.6v-336.4h-67.6v336.4z" />
<glyph unicode="&#xe919;" glyph-name="deleted-1_light" d="M742.4 712.4h-117.2v23.6c0 23.2-19.2 42.4-42.4 42.4h-141.6c-23.2 0-42.4-19.2-42.4-42.4v-23.6h-117.2c-23.6 0-42.8-19.2-42.8-42.8v-30.8c0-23.6 19.2-42.8 42.8-42.8h10.8v-408c0-38.4 31.6-70 70-70h299.2c18.8 0 36.4 7.2 49.6 20.8 13.2 13.2 20.4 30.4 20 48.8v408.4h11.2c11.6 0 22.8 4.8 30.8 12.8 8 8.4 12.4 18.8 12 30v30.8c0 23.6-19.2 42.8-42.8 42.8zM450.4 712.8v14h123.2v-14h-123.2zM734 661.2v-14h-444v14h444zM680 188c0-10-8.4-18.4-18.4-18.4h-299.2c-10 0-18.4 8.4-18.4 18.4v408h336v-408zM388.4 541.6h51.6v-320.4h-51.6v320.4zM486.4 541.6h51.6v-320.4h-51.6v320.4zM584 541.6h51.6v-320.4h-51.6v320.4z" />
<glyph unicode="&#xe91a;" glyph-name="deleted-1_medium" d="M742.4 716.4h-112.8v48c0 30-20.8 54.4-46.4 54.4h-141.6c-25.6 0-46.4-24.4-46.4-54.4v-48h-113.6c-26 0-46.8-20.8-46.8-46.8v-30.8c0-26 20.8-46.8 46.8-46.8h6.8v-404c0-40.8 33.2-74 74-74h299.2c20 0 38.4 8 52.4 22s21.6 32.4 21.2 51.6v404.4h7.2c12.4 0 24.8 5.2 33.6 14 8.8 9.2 13.6 20.8 13.2 32.8v30.8c0 26-20.8 46.8-46.8 46.8zM676 188c0-8-6.4-14.4-14.4-14.4h-299.2c-8 0-14.4 6.4-14.4 14.4v404h328v-404zM294 651.2v19.6h101.2v-0.4h234.4v0.4h100.4v-19.6h-436zM454.4 738v12.8h115.2v-12.8h-115.2zM384.4 545.6h59.6v-328.4h-59.6v328.4zM482.4 545.6h59.6v-328.4h-59.6v328.4zM580 545.6h59.6v-328.4h-59.6v328.4z" />
<glyph unicode="&#xe91b;" glyph-name="deleted-2_bold" d="M774.4 722.8h-139.2v30.8c0 28.8-23.6 52.4-52.4 52.4h-141.6c-28.8 0-52.4-23.6-52.4-52.4v-30.8h-139.2v-71.6h35.6l39.6-543.2h370l44 543.2h35.6v71.6zM563.6 753.6v-30.8h-103.2c0 12.8 0 30.8 0 30.8h103.2zM391.6 179.2l-34.8 472h310.4l-38.4-472h-237.2z" />
<glyph unicode="&#xe91c;" glyph-name="deleted-2_light" d="M764.4 712.8h-139.2v23.2c0 23.2-19.2 42.4-42.4 42.4h-141.6c-23.2 0-42.4-19.2-42.4-42.4v-23.2h-139.2v-51.6h34.4l40-543.2h351.2l44 543.2h35.2v51.6zM382.4 169.2l-36 492h331.6l-40-492h-255.6zM573.6 712.8h-123.2v14h123.2v-14z" />
<glyph unicode="&#xe91d;" glyph-name="deleted-2_medium" d="M768.4 716.8h-139.2v25.2c0 25.6-20.8 46.4-46.4 46.4h-141.6c-25.6 0-46.4-20.8-46.4-46.4v-25.2h-139.2v-59.6h35.2l39.6-543.2h358.8l44 543.2h35.2v59.6zM569.6 716.8h-115.2c0 6.4 0 13.6 0 13.6h115.2v-13.6zM386 173.2l-35.6 484h322.8l-39.2-484h-248z" />
<glyph unicode="&#xe91e;" glyph-name="grid1_bold" d="M172 456.8h331.2v331.2h-331.2v-331.2zM431.6 716v-188h-188v188h188zM520.8 788v-331.2h331.2v331.2h-331.2zM592 528v188h188v-188h-188zM172 108h331.2v331.2h-331.2v-331.2zM431.6 367.6v-188h-188v188h188zM520.8 108h331.2v331.2h-331.2v-331.2zM780 367.6v-188h-188v188h188z" />
<glyph unicode="&#xe91f;" glyph-name="grid1_light" d="M182 466.8h311.2v311.2h-311.2v-311.2zM441.6 726v-208h-208v208h208zM530.8 778v-311.2h311.2v311.2h-311.2zM582 518v208h208v-208h-208zM182 118h311.2v311.2h-311.2v-311.2zM441.6 377.6v-208h-208v208h208zM530.8 118h311.2v311.2h-311.2v-311.2zM790 377.6v-208h-208v208h208z" />
<glyph unicode="&#xe920;" glyph-name="grid1_medium" d="M178 462.8h319.2v319.2h-319.2v-319.2zM437.6 722v-200h-200v200h200zM526.8 782v-319.2h319.2v319.2h-319.2zM586 522v200h200v-200h-200zM178 114h319.2v319.2h-319.2v-319.2zM437.6 373.6v-200h-200v200h200zM526.8 114h319.2v319.2h-319.2v-319.2zM786 373.6v-200h-200v200h200z" />
<glyph unicode="&#xe921;" glyph-name="grid2_bold" d="M649.2 788h-477.2v-680h680v680h-202.8zM243.6 310.8h131.2v-131.2h-131.2v131.2zM446.4 513.6h131.2v-131.2h-131.2v131.2zM577.6 585.2h-131.2v131.2h131.2v-131.2zM374.8 585.2h-131.2v131.2h131.2v-131.2zM243.6 513.6h131.2v-131.2h-131.2v131.2zM446.4 310.8h131.2v-131.2h-131.2v131.2zM649.2 310.8h131.2v-131.2h-131.2v131.2zM780.4 382.4h-131.2v131.2h131.2v-131.2zM780.4 585.2h-131.2v131.2h131.2v-131.2z" />
<glyph unicode="&#xe922;" glyph-name="grid2_light" d="M639.2 778h-457.2v-660h660v660h-202.8zM790.4 575.2h-151.2v151.2h151.2v-151.2zM790.4 372.4h-151.2v151.2h151.2v-151.2zM436.4 320.8h151.2v-151.2h-151.2v151.2zM233.6 523.6h151.2v-151.2h-151.2v151.2zM587.6 575.2h-151.2v151.2h151.2v-151.2zM436.4 523.6h151.2v-151.2h-151.2v151.2zM384.8 575.2h-151.2v151.2h151.2v-151.2zM233.6 320.8h151.2v-151.2h-151.2v151.2zM639.2 320.8h151.2v-151.2h-151.2v151.2z" />
<glyph unicode="&#xe923;" glyph-name="grid2_medium" d="M643.2 782h-465.2v-668h668v668h-202.8zM786.4 579.2h-143.2v143.2h143.2v-143.2zM786.4 376.4h-143.2v143.2h143.2v-143.2zM440.4 316.8h143.2v-143.2h-143.2v143.2zM237.6 519.6h143.2v-143.2h-143.2v143.2zM583.6 579.2h-143.2v143.2h143.2v-143.2zM440.4 519.6h143.2v-143.2h-143.2v143.2zM380.8 579.2h-143.2v143.2h143.2v-143.2zM237.6 316.8h143.2v-143.2h-143.2v143.2zM643.2 316.8h143.2v-143.2h-143.2v143.2z" />
<glyph unicode="&#xe924;" glyph-name="grid3_bold" d="M700 788.4h-528.4v-680.8h680.8v680.8h-152.4zM700 260h80.8v-80.8h-80.8v80.8zM243.2 260h80.8v-80.8h-80.8v80.8zM395.6 412.4h80.8v-80.8h-80.8v80.8zM628.4 484h-80.8v80.8h80.8v-80.8zM628.4 412.4v-80.8h-80.8v80.8h80.8zM476.4 484h-80.8v80.8h80.8v-80.8zM628.4 636h-80.8v80.8h80.8v-80.8zM476.4 636h-80.8v80.8h80.8v-80.8zM324 636h-80.8v80.8h80.8v-80.8zM243.2 564.8h80.8v-80.8h-80.8v80.8zM243.2 412.4h80.8v-80.8h-80.8v80.8zM395.6 260h80.8v-80.8h-80.8v80.8zM547.6 260h80.8v-80.8h-80.8v80.8zM780.8 331.6h-80.8v80.8h80.8v-80.8zM780.8 484h-80.8v80.8h80.8v-80.8zM780.8 636h-80.8v80.8h80.8v-80.8z" />
<glyph unicode="&#xe925;" glyph-name="grid3_light" d="M690 778.4h-508.4v-660.8h660.8v660.8h-152.4zM790.8 626h-100.8v100.8h100.8v-100.8zM790.8 474h-100.8v100.8h100.8v-100.8zM537.6 270h100.8v-100.8h-100.8v100.8zM233.2 422.4h100.8v-100.8h-100.8v100.8zM233.2 574.8h100.8v-100.8h-100.8v100.8zM486.4 321.6h-100.8v100.8h100.8v-100.8zM638.4 422.4v-100.8h-100.8v100.8h100.8zM638.4 474h-100.8v100.8h100.8v-100.8zM486.4 474h-100.8v100.8h100.8v-100.8zM638.4 626h-100.8v100.8h100.8v-100.8zM486.4 626h-100.8v100.8h100.8v-100.8zM385.6 270h100.8v-100.8h-100.8v100.8zM790.8 321.6h-100.8v100.8h100.8v-100.8zM334 626h-100.8v100.8h100.8v-100.8zM233.2 270h100.8v-100.8h-100.8v100.8zM690 270h100.8v-100.8h-100.8v100.8z" />
<glyph unicode="&#xe926;" glyph-name="grid3_medium" d="M694 782.4h-516.4v-668.8h668.8v668.8h-152.4zM786.8 630h-92.8v92.8h92.8v-92.8zM786.8 478h-92.8v92.8h92.8v-92.8zM541.6 266h92.8v-92.8h-92.8v92.8zM237.2 418.4h92.8v-92.8h-92.8v92.8zM237.2 570.8h92.8v-92.8h-92.8v92.8zM482.4 325.6h-92.8v92.8h92.8v-92.8zM634.4 418.4v-92.8h-92.8v92.8h92.8zM634.4 478h-92.8v92.8h92.8v-92.8zM482.4 478h-92.8v92.8h92.8v-92.8zM634.4 630h-92.8v92.8h92.8v-92.8zM482.4 630h-92.8v92.8h92.8v-92.8zM389.6 266h92.8v-92.8h-92.8v92.8zM786.8 325.6h-92.8v92.8h92.8v-92.8zM330 630h-92.8v92.8h92.8v-92.8zM237.2 266h92.8v-92.8h-92.8v92.8zM694 266h92.8v-92.8h-92.8v92.8z" />
<glyph unicode="&#xe927;" glyph-name="grid4_bold" d="M852 605.6v71.6h-110.8v110.8h-71.6v-110.8h-57.6v110.8h-71.2v-110.8h-57.6v110.8h-71.2v-110.8h-57.6v110.8h-71.6v-110.8h-110.8v-71.6h110.8v-57.2h-110.8v-71.6h110.8v-57.6h-110.8v-71.6h110.8v-57.2h-110.8v-71.6h110.8v-110.8h71.6v110.8h57.6v-110.8h71.2v110.8h57.6v-110.8h71.2v110.8h57.6v-110.8h71.6v110.8h110.8v71.6h-110.8v57.2h110.8v71.6h-110.8v57.6h110.8v71.6h-110.8v57.2h110.8zM354.4 605.6h57.2v-57.2h-57.2v57.2zM483.2 419.2c0 26.4 0 30.8 0 57.2h57.2v-57.2h-57.2zM669.2 419.2h-57.2v57.2h57.2v-57.2zM669.2 548.4h-57.2v57.2h57.2v-57.2zM540.4 548.4h-57.2c0 26.4 0 30.8 0 57.2h57.2v-57.2zM354.4 476.4h57.2v-57.2h-57.2v57.2zM354.4 347.6h57.2v-57.2h-57.2v57.2zM483.2 347.6h57.2v-57.2h-57.2c0 26.4 0 30.8 0 57.2zM612 347.6h57.2v-57.2h-57.2v57.2z" />
<glyph unicode="&#xe928;" glyph-name="grid4_light" d="M842 615.6v51.6h-110.8v110.8h-51.6v-110.8h-77.6v110.8h-51.2v-110.8h-77.6v110.8h-51.2v-110.8h-77.6v110.8h-51.6v-110.8h-110.8v-51.6h110.8v-77.2h-110.8v-51.6h110.8v-77.6h-110.8v-51.6h110.8v-77.2h-110.8v-51.6h110.8v-110.8h51.6v110.8h77.6v-110.8h51.2c0 0 0 62.8 0 110.8h77.6v-110.8h51.2v110.8h77.6v-110.8h51.6v110.8h110.8v51.6h-110.8v77.2h110.8v51.6h-110.8v77.6h110.8v51.6h-110.8v77.2h110.8zM344.4 615.6h77.2v-77.2h-77.2v77.2zM473.2 409.2c0 31.2 0 45.6 0 77.2h77.2v-77.2h-77.2zM679.2 409.2h-77.2v77.2h77.2v-77.2zM421.6 409.2h-77.2v77.2h77.2v-77.2zM679.2 538.4h-77.2v77.2h77.2v-77.2zM550.4 538.4h-77.2c0 31.6 0 45.6 0 77.2h77.2v-77.2zM344.4 357.6h77.2v-77.2h-77.2v77.2zM473.2 357.6h77.2v-77.2h-77.2c0 31.6 0 45.6 0 77.2zM602 357.6h77.2v-77.2h-77.2v77.2z" />
<glyph unicode="&#xe929;" glyph-name="grid4_medium" d="M846 611.6v59.6h-110.8v110.8h-59.6v-110.8h-69.6v110.8h-59.2v-110.8h-69.6v110.8h-59.2v-110.8h-69.6v110.8h-59.6v-110.8h-110.8v-59.6h110.8v-69.2h-110.8v-59.6h110.8v-69.6h-110.8v-59.6h110.8v-69.2h-110.8v-59.6h110.8v-110.8h59.6v110.8h69.6v-110.8h59.2c0 0 0 60.4 0 110.8h69.6v-110.8h59.2v110.8h69.6v-110.8h59.6v110.8h110.8v59.6h-110.8v69.2h110.8v59.6h-110.8v69.6h110.8v59.6h-110.8v69.2h110.8zM348.4 611.6h69.2v-69.2h-69.2v69.2zM477.2 413.2c0 30 0 39.2 0 69.2h69.2v-69.2h-69.2zM675.2 413.2h-69.2v69.2h69.2v-69.2zM417.6 413.2h-69.2v69.2h69.2v-69.2zM675.2 542.4h-69.2v69.2h69.2v-69.2zM546.4 542.4h-69.2c0 30 0 39.2 0 69.2h69.2v-69.2zM348.4 353.6h69.2v-69.2h-69.2v69.2zM477.2 353.6h69.2v-69.2h-69.2c0 30 0 39.2 0 69.2zM606 353.6h69.2v-69.2h-69.2v69.2z" />
<glyph unicode="&#xe92a;" glyph-name="left_bold" d="M711.2 744.8l-50.8 50.8-347.6-347.6 347.6-347.6 50.8 50.8-296.8 296.8z" />
<glyph unicode="&#xe92b;" glyph-name="left_double_bold" d="M607.2 744.8l-50.8 50.8-347.6-347.6 347.6-347.6 50.8 50.8-296.8 296.8zM815.2 744.8l-50.8 50.8-347.6-347.6 347.6-347.6 50.8 50.8-296.8 296.8z" />
<glyph unicode="&#xe92c;" glyph-name="left_double_light" d="M592.8 744.8l-36.4 36.4-333.2-333.2 333.2-333.2 36.4 36.4-296.8 296.8zM800.8 744.8l-36.4 36.4-333.2-333.2 333.2-333.2 36.4 36.4-296.8 296.8z" />
<glyph unicode="&#xe92d;" glyph-name="left_double_medium" d="M598.4 744.8l-42 42-338.8-338.8 338.8-338.8 42 42-296.8 296.8zM806.4 744.8l-42 42-338.8-338.8 338.8-338.8 42 42-296.8 296.8z" />
<glyph unicode="&#xe92e;" glyph-name="left_light" d="M696.8 744.8l-36.4 36.4-333.2-333.2 333.2-333.2 36.4 36.4-296.8 296.8z" />
<glyph unicode="&#xe92f;" glyph-name="left_medium" d="M702.4 744.8l-42 42-338.8-338.8 338.8-338.8 42 42-296.8 296.8z" />
<glyph unicode="&#xe930;" glyph-name="left-rounded_bold" d="M439.2 483.6l91.6 91.2-50.8 50.8-142-142h-2.8v-2.8l-32.8-32.8 32.8-32.8v-3.2h3.2l141.6-141.6 50.8 50.8-91.2 90.8h274.8v71.6zM512 788c-187.6 0-340-152.4-340-340s152.4-340 340-340 340 152.4 340 340c0 187.6-152.4 340-340 340zM512 179.2c-148.4 0-268.8 120.4-268.8 268.8s120.4 268.8 268.8 268.8c148.4 0 268.8-120.4 268.8-268.8s-120.4-268.8-268.8-268.8z" />
<glyph unicode="&#xe931;" glyph-name="left-rounded_light" d="M516.4 574.8l-36.4 36.4-163.2-163.2 163.2-163.2 36.4 36.4-101.2 100.8h289.2v51.6h-289.6zM512 778c-182 0-330-148-330-330s148-330 330-330 330 148 330 330-148 330-330 330zM512 169.2c-153.6 0-278.8 125.2-278.8 278.8s125.2 278.8 278.8 278.8 278.8-125.2 278.8-278.8c0-153.6-125.2-278.8-278.8-278.8z" />
<glyph unicode="&#xe932;" glyph-name="left-rounded_medium" d="M424.4 477.6l97.6 97.2-42 42-168.8-168.8 168.8-168.8 42 42-97.2 96.8h283.6v59.6zM512 782c-184 0-334-150-334-334s150-334 334-334 334 150 334 334-150 334-334 334zM512 173.2c-151.6 0-274.8 123.2-274.8 274.8s123.2 274.8 274.8 274.8 274.8-123.2 274.8-274.8c0-151.6-123.2-274.8-274.8-274.8z" />
<glyph unicode="&#xe933;" glyph-name="left-rounded-2_bold" d="M575.6 625.6l-177.6-177.6 177.6-177.6 50 50.8-126.4 126.8 126.4 126.8zM512 788c-187.6 0-340-152.4-340-340s152.4-340 340-340 340 152.4 340 340c0 187.6-152.4 340-340 340zM512 179.2c-148.4 0-268.8 120.4-268.8 268.8s120.4 268.8 268.8 268.8c148.4 0 268.8-120.4 268.8-268.8s-120.4-268.8-268.8-268.8z" />
<glyph unicode="&#xe934;" glyph-name="left-rounded-2_light" d="M575.6 611.2l-163.2-163.2 163.2-163.2 36 36.4-126.8 126.8 126.8 126.4zM512 778c-182 0-330-148-330-330s148-330 330-330 330 148 330 330-148 330-330 330zM512 169.2c-153.6 0-278.8 125.2-278.8 278.8s125.2 278.8 278.8 278.8 278.8-125.2 278.8-278.8c0-153.6-125.2-278.8-278.8-278.8z" />
<glyph unicode="&#xe935;" glyph-name="left-rounded-2_medium" d="M576 617.2l-169.2-169.2 168.8-169.2 41.6 42.4-126.8 126.8 127.2 126.8zM512 782c-184 0-334-150-334-334s150-334 334-334 334 150 334 334-150 334-334 334zM512 173.2c-151.6 0-274.8 123.2-274.8 274.8s123.2 274.8 274.8 274.8 274.8-123.2 274.8-274.8c0-151.6-123.2-274.8-274.8-274.8z" />
<glyph unicode="&#xe936;" glyph-name="left-rounded-3_bold" d="M308.4 447.6l279.6 279.6c13.6 14.4 13.6 36.4-0.4 50.4l-0.4 0.4c-14.4 13.6-36.8 13.2-50.4-0.4l-304.8-304.8c-13.6-14.4-13.2-36.4 0.4-50.4l304-304c6.4-6.8 15.6-10.8 25.6-10.8 8 0 16.8 3.2 24 8.4l1.2 0.8 0.8 1.2c13.6 14.4 13.6 36.4-0.4 50.4l-279.2 279.2zM512.8 447.6l279.6 279.6c13.6 14.4 13.6 36.4-0.4 50.4l-0.4 0.4c-14.4 13.6-36.4 13.6-50.4-0.4l-304.8-304.8c-13.6-14.4-13.2-36.4 0.4-50.4l304-304c6.4-6.8 15.6-10.8 25.6-10.8 8.4 0 16.8 2.8 24 8.4l1.2 0.8 0.8 1.2c13.6 14.4 13.6 36.4-0.4 50.4l-279.2 279.2z" />
<glyph unicode="&#xe937;" glyph-name="left-rounded-3_light" d="M294.4 447.6l286.4 286.4c9.6 10 9.6 26.4-0.4 36.4-10.4 10-26.8 9.6-36.4 0l-304.8-304.4c-10-10.4-9.6-26.8 0-36.4l304.4-304.4c4.8-4.8 11.2-7.6 18.4-7.6 6 0 12.4 2.4 18 6.4l0.8 0.8c10 10.4 9.6 26.8 0 36.4l-286.4 286.4zM785.2 161.2l-286.4 286.4 286.4 286.4c9.6 10 9.6 26.4-0.4 36.4-10.4 10-26.8 9.6-36.4 0l-304.4-304.4c-10-10.4-9.6-26.8 0-36.4l304-304.4c4.8-4.8 11.2-7.6 18.4-7.6 6 0 12.4 2.4 17.6 6.4l1.2 0.8c10 10.4 9.6 26.8 0 36.4z" />
<glyph unicode="&#xe938;" glyph-name="left-rounded-3_medium" d="M300 448l283.6 283.6c11.2 11.6 11.2 30.4-0.4 42-12 11.2-30.8 10.8-42-0.4l-304.8-304.8c-11.2-12-11.2-30.4 0.4-42l304-304c5.2-5.6 12.8-8.8 21.2-8.8 6.8 0 14 2.8 20.8 7.6l1.2 1.2c11.2 12 11.2 30.4-0.4 42l-283.6 283.6zM504 447.6l284 284c11.2 11.6 11.2 30.4-0.4 42-12 11.2-30.4 11.2-42-0.4l-304.8-304.8c-11.2-12-11.2-30.4 0.4-42l304-304c5.2-5.6 12.8-8.8 21.2-8.8 7.2 0 14 2.4 20.4 7.2l1.2 1.2c11.2 12 11.2 30.4-0.4 42l-283.6 283.6z" />
<glyph unicode="&#xe939;" glyph-name="less_bold" d="M816 483.6h-608c-19.6 0-35.6-16-35.6-35.6s16-35.6 35.6-35.6h608c19.6 0 35.6 16 35.6 35.6s-16 35.6-35.6 35.6z" />
<glyph unicode="&#xe93a;" glyph-name="less_light" d="M816 473.6h-608c-14 0-25.6-11.6-25.6-25.6s11.6-25.6 25.6-25.6h608c14 0 25.6 11.6 25.6 25.6s-11.6 25.6-25.6 25.6z" />
<glyph unicode="&#xe93b;" glyph-name="less_medium" d="M816 477.6h-608c-16.4 0-29.6-13.2-29.6-29.6s13.2-29.6 29.6-29.6h608c16.4 0 29.6 13.2 29.6 29.6s-13.2 29.6-29.6 29.6z" />
<glyph unicode="&#xe93c;" glyph-name="less-rounded_bold" d="M512 778c-182 0-330-148-330-330s148-330 330-330 330 148 330 330-148 330-330 330zM512 169.2c-153.6 0-278.8 125.2-278.8 278.8s125.2 278.8 278.8 278.8 278.8-125.2 278.8-278.8c0-153.6-125.2-278.8-278.8-278.8zM690.8 473.6h-357.6c-12 0-22-11.6-22-25.6s10-25.6 22-25.6h358c12 0 21.6 11.6 21.6 25.6s-10 25.6-22 25.6z" />
<glyph unicode="&#xe93d;" glyph-name="less-rounded_light" d="M512 778c-182 0-330-148-330-330s148-330 330-330 330 148 330 330-148 330-330 330zM512 169.2c-153.6 0-278.8 125.2-278.8 278.8s125.2 278.8 278.8 278.8 278.8-125.2 278.8-278.8c0-153.6-125.2-278.8-278.8-278.8zM718.8 473.6h-414c-14 0-25.6-11.6-25.6-25.6s11.6-25.6 25.6-25.6h414.4c14 0 25.2 11.6 25.2 25.6s-11.6 25.6-25.6 25.6z" />
<glyph unicode="&#xe93e;" glyph-name="less-rounded_medium" d="M512 778c-182 0-330-148-330-330s148-330 330-330 330 148 330 330-148 330-330 330zM512 169.2c-153.6 0-278.8 125.2-278.8 278.8s125.2 278.8 278.8 278.8 278.8-125.2 278.8-278.8c0-153.6-125.2-278.8-278.8-278.8zM718.8 473.6h-414c-14 0-25.6-11.6-25.6-25.6s11.6-25.6 25.6-25.6h414.4c14 0 25.2 11.6 25.2 25.6s-11.6 25.6-25.6 25.6z" />
<glyph unicode="&#xe93f;" glyph-name="list-1_bold" d="M341.6 665.2h430.4v-35.6h-430.4v35.6zM237.6 665.2h45.2v-35.6h-45.2v35.6zM341.6 476.8h430.4v-35.6h-430.4v35.6zM237.6 476.8h45.2v-35.6h-45.2v35.6zM341.6 284h430.4v-35.6h-430.4v35.6zM237.6 284h45.2v-35.6h-45.2v35.6z" />
<glyph unicode="&#xe940;" glyph-name="list-1_light" d="M333.6 673.2h446.4v-51.6h-446.4v51.6zM244 673.2h61.2v-51.6h-61.2v51.6zM333.6 484.8h446.4v-51.6h-446.4v51.6zM244 484.8h61.2v-51.6h-61.2v51.6zM333.6 292h446.4v-51.6h-446.4v51.6zM244 292h61.2v-51.6h-61.2v51.6z" />
<glyph unicode="&#xe941;" glyph-name="list-1_medium" d="M329.6 677.2h454.4v-59.6h-454.4v59.6zM240 677.2h69.2v-59.6h-69.2v59.6zM329.6 488.8h454.4v-59.6h-454.4v59.6zM240 488.8h69.2v-59.6h-69.2v59.6zM329.6 296h454.4v-59.6h-454.4v59.6zM240 296h69.2v-59.6h-69.2v59.6z" />
<glyph unicode="&#xe942;" glyph-name="list-2_bold" d="M370.4 483.6h466.4v-71.6h-466.4v71.6zM275.6 517.2c-38 0-69.2-31.2-69.2-69.2s31.2-69.2 69.2-69.2 69.2 31.2 69.2 69.2-31.2 69.2-69.2 69.2zM275.6 450.4c1.2 0 2.4-1.2 2.4-2.4s-0.8-2.4-2.4-2.4c-1.2 0-2.4 1.2-2.4 2.4s0.8 2.4 2.4 2.4zM370.4 756.4h466.4v-71.6h-466.4v71.6zM275.6 790c-38 0-69.2-31.2-69.2-69.2s31.2-69.2 69.2-69.2 69.2 31.2 69.2 69.2-31.2 69.2-69.2 69.2zM275.6 722.8c1.2 0 2.4-1.2 2.4-2.4s-0.8-2.4-2.4-2.4c-1.2 0-2.4 1.2-2.4 2.4s0.8 2.4 2.4 2.4zM370.4 212.8h466.4v-71.6h-466.4v71.6zM275.6 246c-38 0-69.2-30.8-69.2-68.8s31.2-69.2 69.2-69.2 69.2 30.8 69.2 68.8-31.2 69.2-69.2 69.2zM275.6 179.2c1.2 0 2.4-1.2 2.4-2.4s-0.8-2.4-2.4-2.4c-1.2 0-2.4 1.2-2.4 2.4s0.8 2.4 2.4 2.4z" />
<glyph unicode="&#xe943;" glyph-name="list-2_light" d="M354 473.6h446.4v-51.6h-446.4v51.6zM282.4 507.2c-32.8 0-59.2-26.4-59.2-59.2s26.4-59.2 59.2-59.2c32.8 0 59.2 26.4 59.2 59.2s-26.4 59.2-59.2 59.2zM282.4 455.6c4.4 0 7.6-3.2 7.6-7.6 0-4-3.6-7.6-7.6-7.6-4.4 0-7.6 3.2-7.6 7.6 0 4 3.6 7.6 7.6 7.6zM354 746.4h446.4v-51.6h-446.4v51.6zM282.4 780c-32.8 0-59.2-26.4-59.2-59.2s26.4-59.2 59.2-59.2c32.8 0 59.2 26.4 59.2 59.2s-26.4 59.2-59.2 59.2zM282.4 728c4.4 0 7.6-3.2 7.6-7.6 0-4-3.6-7.6-7.6-7.6-4.4 0-7.6 3.2-7.6 7.6 0 4 3.6 7.6 7.6 7.6zM354 202.8h446.4v-51.6h-446.4v51.6zM282.4 236c-32.8 0-59.2-26.4-59.2-58.8 0-32.8 26.4-59.2 59.2-59.2s59.2 26.4 59.2 58.8c0 32.8-26.4 59.2-59.2 59.2zM282.4 184.4c4.4 0 7.6-3.2 7.6-7.6 0-4-3.6-7.6-7.6-7.6-4.4 0-7.6 3.2-7.6 7.6 0 4 3.6 7.6 7.6 7.6z" />
<glyph unicode="&#xe944;" glyph-name="list-2_medium" d="M366.4 473.6h446.4v-51.6h-446.4v51.6zM282.4 507.2c-32.8 0-59.2-26.4-59.2-59.2s26.4-59.2 59.2-59.2c32.8 0 59.2 26.4 59.2 59.2s-26.4 59.2-59.2 59.2zM282.4 455.6c4.4 0 7.6-3.2 7.6-7.6 0-4-3.6-7.6-7.6-7.6-4.4 0-7.6 3.2-7.6 7.6 0 4 3.6 7.6 7.6 7.6zM366.4 746.4h446.4v-51.6h-446.4v51.6zM282.4 777.6c-32.8 0-59.2-25.6-59.2-56.8s26.4-56.8 59.2-56.8c32.8 0 59.2 25.6 59.2 56.8s-26.4 56.8-59.2 56.8zM282.4 727.6c4.4 0 7.6-2.8 7.6-7.2 0-4-3.6-7.2-7.6-7.2-4.4 0-7.6 2.8-7.6 7.2 0 4 3.6 7.2 7.6 7.2zM366.4 202.8h446.4v-51.6h-446.4v51.6zM282.4 236c-32.8 0-59.2-26.4-59.2-58.8 0-32.8 26.4-59.2 59.2-59.2s59.2 26.4 59.2 58.8c0 32.8-26.4 59.2-59.2 59.2zM282.4 184.4c4.4 0 7.6-3.2 7.6-7.6 0-4-3.6-7.6-7.6-7.6-4.4 0-7.6 3.2-7.6 7.6 0 4 3.6 7.6 7.6 7.6z" />
<glyph unicode="&#xe945;" glyph-name="list-3_bold" d="M333.6 787.6h466.4v-71.6h-466.4v71.6zM234 787.6h81.2v-71.6h-81.2v71.6zM333.6 584.8h466.4v-71.6h-466.4v71.6zM234 584.8h81.2v-71.6h-81.2v71.6zM333.6 382h466.4v-71.6h-466.4v71.6zM234 382h81.2v-71.6h-81.2v71.6zM333.6 178.8h466.4v-71.6h-466.4v71.6zM234 178.8h81.2v-71.6h-81.2v71.6z" />
<glyph unicode="&#xe946;" glyph-name="list-3_light" d="M333.6 777.6h446.4v-51.6h-446.4v51.6zM244 777.6h61.2v-51.6h-61.2v51.6zM333.6 574.8h446.4v-51.6h-446.4v51.6zM244 574.8h61.2v-51.6h-61.2v51.6zM333.6 372h446.4v-51.6h-446.4v51.6zM244 372h61.2v-51.6h-61.2v51.6zM333.6 168.8h446.4v-51.6h-446.4v51.6zM244 168.8h61.2v-51.6h-61.2v51.6z" />
<glyph unicode="&#xe947;" glyph-name="list-3_medium" d="M329.6 781.6h454.4v-59.6h-454.4v59.6zM240 781.6h69.2v-59.6h-69.2v59.6zM329.6 578.8h454.4v-59.6h-454.4v59.6zM240 578.8h69.2v-59.6h-69.2v59.6zM329.6 376h454.4v-59.6h-454.4v59.6zM240 376h69.2v-59.6h-69.2v59.6zM329.6 172.8h454.4v-59.6h-454.4v59.6zM240 172.8h69.2v-59.6h-69.2v59.6z" />
<glyph unicode="&#xe948;" glyph-name="list-4_bold" d="M775.2 788.4h-526.4c-42.4 0-77.2-34.8-77.2-77.2v-526c0-42.4 34.8-77.2 77.2-77.2h526.4c42 0 76.8 34.4 77.2 76.8v526.4c0 42.4-34.8 77.2-77.2 77.2zM243.2 711.2c0 3.2 2.8 5.6 5.6 5.6h526.4c3.2 0 5.6-2.8 5.6-5.6v-526.4c0-3.2-2.8-5.6-5.6-5.6h-526.4c-3.2 0-5.6 2.8-5.6 5.6v526.4zM403.2 658h282.4v-71.6h-282.4v71.6zM333.6 658h62v-71.6h-62v71.6zM404.8 483.6h282.4v-71.6h-282.4v71.6zM333.6 483.6h62v-71.6h-62v71.6zM403.2 309.6h282.4v-71.6h-282.4v71.6zM332 309.6h62v-71.6h-62v71.6z" />
<glyph unicode="&#xe949;" glyph-name="list-4_light" d="M775.2 778.4h-526.4c-37.2 0-67.2-30-67.2-67.2v-526c0-37.2 30-67.2 67.2-67.2h526.4c36.8 0 66.8 30 67.2 66.8v526.4c0 37.2-30 67.2-67.2 67.2zM233.2 711.2c0 8.8 6.8 15.6 15.6 15.6h526.4c8.4 0 15.6-6.8 15.6-15.6v-526.4c0-8.8-6.8-15.6-15.6-15.6h-526.4c-8.8 0-15.6 6.8-15.6 15.6v526.4zM406.4 648h262.4v-51.6h-262.4v51.6zM355.2 648h42v-51.6h-42v51.6zM406.4 473.6h262.4v-51.6h-262.4v51.6zM355.2 473.6h42v-51.6h-42v51.6zM406.4 299.6h262.4v-51.6h-262.4v51.6zM355.2 299.6h42v-51.6h-42v51.6z" />
<glyph unicode="&#xe94a;" glyph-name="list-4_medium" d="M775.2 782.4h-526.4c-39.2 0-71.2-32-71.2-71.2v-526c0-39.2 32-71.2 71.2-71.2h526.4c38.8 0 70.8 31.6 71.2 70.8v526.4c0 39.2-32 71.2-71.2 71.2zM237.2 711.2c0 6.4 5.2 11.6 11.6 11.6h526.4c6.4 0 11.6-5.2 11.6-11.6v-526.4c0-6.4-5.2-11.6-11.6-11.6h-526.4c-6.4 0-11.6 5.2-11.6 11.6v526.4zM409.2 652h270.4v-59.6h-270.4v59.6zM351.2 652h50v-59.6h-50v59.6zM409.2 477.6h270.4v-59.6h-270.4v59.6zM351.2 477.6h50v-59.6h-50v59.6zM409.2 303.6h270.4v-59.6h-270.4v59.6zM351.2 303.6h50v-59.6h-50v59.6z" />
<glyph unicode="&#xe94b;" glyph-name="list-5_bold" d="M365.6 663.6h406.4c19.6 0 35.6 16 35.6 35.6s-16 35.6-35.6 35.6h-406.4c-19.6 0-35.6-16-35.6-35.6s16-35.6 35.6-35.6zM272 734.8h-45.2c-19.6 0-35.6-16-35.6-35.6s16-35.6 35.6-35.6h45.2c19.6 0 35.6 16 35.6 35.6s-16 35.6-35.6 35.6zM772 483.6h-406.4c-19.6 0-35.6-16-35.6-35.6s16-35.6 35.6-35.6h406.4c19.6 0 35.6 16 35.6 35.6s-16 35.6-35.6 35.6zM272 483.6h-45.2c-19.6 0-35.6-16-35.6-35.6s16-35.6 35.6-35.6h45.2c19.6 0 35.6 16 35.6 35.6s-16 35.6-35.6 35.6zM772 224.4h-406.4c-19.6 0-35.6-16-35.6-35.6s16-35.6 35.6-35.6h406.4c19.6 0 35.6 16 35.6 35.6s-16 35.6-35.6 35.6zM272 224.4h-45.2c-19.6 0-35.6-16-35.6-35.6s16-35.6 35.6-35.6h45.2c19.6 0 35.6 16 35.6 35.6s-16 35.6-35.6 35.6z" />
<glyph unicode="&#xe94c;" glyph-name="list-5_light" d="M365.6 673.6h406.4c14 0 25.6 11.6 25.6 25.6s-11.6 25.6-25.6 25.6h-406.4c-14 0-25.6-11.6-25.6-25.6s11.6-25.6 25.6-25.6zM297.2 724.8h-45.2c-14 0-25.6-11.6-25.6-25.6s11.6-25.6 25.6-25.6h45.2c14 0 25.6 11.6 25.6 25.6s-11.6 25.6-25.6 25.6zM772 473.6h-406.4c-14 0-25.6-11.6-25.6-25.6s11.6-25.6 25.6-25.6h406.4c14 0 25.6 11.6 25.6 25.6s-11.6 25.6-25.6 25.6zM297.2 473.6h-45.2c-14 0-25.6-11.6-25.6-25.6s11.6-25.6 25.6-25.6h45.2c14 0 25.6 11.6 25.6 25.6s-11.6 25.6-25.6 25.6zM772 214.4h-406.4c-14 0-25.6-11.6-25.6-25.6s11.6-25.6 25.6-25.6h406.4c14 0 25.6 11.6 25.6 25.6s-11.6 25.6-25.6 25.6zM297.2 214.4h-45.2c-14 0-25.6-11.6-25.6-25.6s11.6-25.6 25.6-25.6h45.2c14 0 25.6 11.6 25.6 25.6s-11.6 25.6-25.6 25.6z" />
<glyph unicode="&#xe94d;" glyph-name="list-5_medium" d="M365.6 669.6h406.4c16.4 0 29.6 13.2 29.6 29.6s-13.2 29.6-29.6 29.6h-406.4c-16.4 0-29.6-13.2-29.6-29.6s13.2-29.6 29.6-29.6zM297.2 728.8h-45.2c-16.4 0-29.6-13.2-29.6-29.6s13.2-29.6 29.6-29.6h45.2c16.4 0 29.6 13.2 29.6 29.6s-13.2 29.6-29.6 29.6zM772 477.6h-406.4c-16.4 0-29.6-13.2-29.6-29.6s13.2-29.6 29.6-29.6h406.4c16.4 0 29.6 13.2 29.6 29.6s-13.2 29.6-29.6 29.6zM297.2 477.6h-45.2c-16.4 0-29.6-13.2-29.6-29.6s13.2-29.6 29.6-29.6h45.2c16.4 0 29.6 13.2 29.6 29.6s-13.2 29.6-29.6 29.6zM772 218.4h-406.4c-16.4 0-29.6-13.2-29.6-29.6s13.2-29.6 29.6-29.6h406.4c16.4 0 29.6 13.6 29.6 29.6 0 16.4-13.2 29.6-29.6 29.6zM297.2 218.4h-45.2c-16.4 0-29.6-13.2-29.6-29.6s13.2-29.6 29.6-29.6h45.2c16.4 0 29.6 13.6 29.6 29.6 0 16.4-13.2 29.6-29.6 29.6z" />
<glyph unicode="&#xe94e;" glyph-name="menu-1_bold" d="M235.6 708.8h553.2v-71.6h-553.2v71.6zM235.6 493.6h553.2v-71.6h-553.2v71.6zM235.6 266.8h553.2v-71.6h-553.2v71.6z" />
<glyph unicode="&#xe94f;" glyph-name="menu-1_light" d="M245.6 690.8h533.2v-51.6h-533.2v51.6zM245.6 475.6h533.2v-51.6h-533.2v51.6zM245.6 248.8h533.2v-51.6h-533.2v51.6z" />
<glyph unicode="&#xe950;" glyph-name="menu-1_medium" d="M241.6 702.8h541.2v-59.6h-541.2v59.6zM241.6 487.6h541.2v-59.6h-541.2v59.6zM241.6 260.8h541.2v-59.6h-541.2v59.6z" />
<glyph unicode="&#xe951;" glyph-name="menu2_bold" d="M235.6 700.8h553.2v-71.6h-553.2v71.6zM235.6 483.6h553.2v-71.6h-553.2v71.6zM435.6 270h352.8v-71.6h-352.8v71.6z" />
<glyph unicode="&#xe952;" glyph-name="menu2_light" d="M245.6 690.8h533.2v-51.6h-533.2v51.6zM245.6 473.6h533.2v-51.6h-533.2v51.6zM445.6 260h332.8v-51.6h-332.8v51.6z" />
<glyph unicode="&#xe953;" glyph-name="menu2_medium" d="M241.6 694.8h541.2v-59.6h-541.2v59.6zM241.6 477.6h541.2v-59.6h-541.2v59.6zM441.6 264h340.8v-59.6h-340.8v59.6z" />
<glyph unicode="&#xe954;" glyph-name="menu3_bold" d="M253.6 652.4h516.8c20 0 36 16 36 35.6s-16 35.6-35.6 35.6h-517.2c-19.6 0-35.6-16-35.6-35.6s16-35.6 35.6-35.6zM770.8 483.6h-517.2c-19.6 0-35.6-16-35.6-35.6s16-35.6 35.6-35.6h516.8c20 0 36 16 36 35.6s-16 35.6-35.6 35.6zM770.8 236h-517.2c-19.6 0-35.6-16-35.6-35.6s16-35.6 35.6-35.6h516.8c20 0 36 16 36 35.6s-16 35.6-35.6 35.6z" />
<glyph unicode="&#xe955;" glyph-name="menu3_light" d="M253.6 662.4h516.8c14.4 0 26 11.6 26 25.6s-11.6 25.6-25.6 25.6h-517.2c-14 0-25.6-11.6-25.6-25.6s11.6-25.6 25.6-25.6zM770.8 473.6h-517.2c-14 0-25.6-11.6-25.6-25.6s11.6-25.6 25.6-25.6h516.8c14.4 0 26 11.6 26 25.6s-11.6 25.6-25.6 25.6zM770.8 226h-517.2c-14 0-25.6-11.6-25.6-25.6s11.6-25.6 25.6-25.6h516.8c14.4 0 26 11.6 26 25.6s-11.6 25.6-25.6 25.6z" />
<glyph unicode="&#xe956;" glyph-name="menu3_medium" d="M253.6 658.4h516.8c16.4 0 30 13.2 30 29.6s-13.2 29.6-29.6 29.6h-517.2c-16.4 0-29.6-13.2-29.6-29.6s13.2-29.6 29.6-29.6zM770.8 477.6h-517.2c-16.4 0-29.6-13.2-29.6-29.6s13.2-29.6 29.6-29.6h516.8c16.4 0 30 13.2 30 29.6s-13.2 29.6-29.6 29.6zM770.8 230h-517.2c-16.4 0-29.6-13.2-29.6-29.6s13.2-29.6 29.6-29.6h516.8c16.4 0 30 13.2 30 29.6s-13.2 29.6-29.6 29.6z" />
<glyph unicode="&#xe957;" glyph-name="menu4-bold" d="M512 788c-187.6 0-340-152.4-340-340s152.4-340 340-340 340 152.4 340 340c0 187.6-152.4 340-340 340zM512 179.2c-148.4 0-268.8 120.4-268.8 268.8s120.4 268.8 268.8 268.8c148.4 0 268.8-120.4 268.8-268.8s-120.4-268.8-268.8-268.8zM358.4 643.6h307.2v-71.6h-307.2v71.6zM358.4 483.6h307.2v-71.6h-307.2v71.6zM358.4 324h307.2v-71.6h-307.2v71.6z" />
<glyph unicode="&#xe958;" glyph-name="menu4-light" d="M512 778c-182 0-330-148-330-330s148-330 330-330 330 148 330 330-148 330-330 330zM512 169.2c-153.6 0-278.8 125.2-278.8 278.8s125.2 278.8 278.8 278.8 278.8-125.2 278.8-278.8c0-153.6-125.2-278.8-278.8-278.8zM368.4 633.6h287.2v-51.6h-287.2v51.6zM368.4 473.6h287.2v-51.6h-287.2v51.6zM368.4 314h287.2v-51.6h-287.2v51.6z" />
<glyph unicode="&#xe959;" glyph-name="menu4-medium" d="M512 782c-184 0-334-150-334-334s150-334 334-334 334 150 334 334-150 334-334 334zM512 173.2c-151.6 0-274.8 123.2-274.8 274.8s123.2 274.8 274.8 274.8 274.8-123.2 274.8-274.8c0-151.6-123.2-274.8-274.8-274.8zM364.4 637.6h295.2v-59.6h-295.2v59.6zM364.4 477.6h295.2v-59.6h-295.2v59.6zM364.4 318h295.2v-59.6h-295.2v59.6z" />
<glyph unicode="&#xe95a;" glyph-name="more_bold" d="M816 483.6h-268.4v268.4c0 19.6-16 35.6-35.6 35.6s-35.6-16-35.6-35.6v-268.4h-268.4c-19.6 0-35.6-16-35.6-35.6s16-35.6 35.6-35.6h268.4v-268.4c0-19.6 16-35.6 35.6-35.6s35.6 16 35.6 35.6v268.4h268.4c19.6 0 35.6 16 35.6 35.6s-16 35.6-35.6 35.6z" />
<glyph unicode="&#xe95b;" glyph-name="more_light" d="M816 473.6h-278.4v278.4c0 14-11.6 25.6-25.6 25.6s-25.6-11.6-25.6-25.6v-278.4h-278.4c-14 0-25.6-11.6-25.6-25.6s11.6-25.6 25.6-25.6h278.4v-278.4c0-14 11.6-25.6 25.6-25.6s25.6 11.6 25.6 25.6v278.4h278.4c14 0 25.6 11.6 25.6 25.6s-11.6 25.6-25.6 25.6z" />
<glyph unicode="&#xe95c;" glyph-name="more_medium" d="M816 477.6h-274.4v274.4c0 16.4-13.2 29.6-29.6 29.6s-29.6-13.2-29.6-29.6v-274.4h-274.4c-16.4 0-29.6-13.2-29.6-29.6s13.2-29.6 29.6-29.6h274.4v-274.4c0-16.4 13.2-29.6 29.6-29.6s29.6 13.2 29.6 29.6v274.4h274.4c16.4 0 29.6 13.2 29.6 29.6s-13.2 29.6-29.6 29.6z" />
<glyph unicode="&#xe95d;" glyph-name="more-rounded_bold" d="M512 788c-187.6 0-340-152.4-340-340s152.4-340 340-340 340 152.4 340 340c0 187.6-152.4 340-340 340zM512 179.2c-148.4 0-268.8 120.4-268.8 268.8s120.4 268.8 268.8 268.8c148.4 0 268.8-120.4 268.8-268.8s-120.4-268.8-268.8-268.8zM718.8 483.6h-171.2v171.6c0 19.6-16 35.6-35.6 35.6s-35.6-16-35.6-35.6v-171.6h-171.6c-19.6 0-35.6-16-35.6-35.6s16-35.6 35.6-35.6h171.6v-171.6c0-19.6 16-35.6 35.6-35.6 20 0 35.6 16 35.6 36v171.2h171.6c19.6 0 35.2 16 35.2 35.6s-16 35.6-35.6 35.6z" />
<glyph unicode="&#xe95e;" glyph-name="more-rounded_light" d="M512 778c-182 0-330-148-330-330s148-330 330-330 330 148 330 330-148 330-330 330zM512 169.2c-153.6 0-278.8 125.2-278.8 278.8s125.2 278.8 278.8 278.8 278.8-125.2 278.8-278.8c0-153.6-125.2-278.8-278.8-278.8zM718.8 473.6h-181.2v181.6c0 14-11.6 25.6-25.6 25.6s-25.6-11.6-25.6-25.6v-181.6h-181.6c-14 0-25.6-11.6-25.6-25.6s11.6-25.6 25.6-25.6h181.6v-181.6c0-14 11.6-25.6 25.6-25.6 14.4 0 25.6 11.6 25.6 26v181.2h181.6c14 0 25.2 11.6 25.2 25.6s-11.6 25.6-25.6 25.6z" />
<glyph unicode="&#xe95f;" glyph-name="more-rounded_medium" d="M512 782c-184 0-334-150-334-334s150-334 334-334 334 150 334 334-150 334-334 334zM512 173.2c-151.6 0-274.8 123.2-274.8 274.8s123.2 274.8 274.8 274.8 274.8-123.2 274.8-274.8c0-151.6-123.2-274.8-274.8-274.8zM718.8 477.6h-177.2v177.6c0 16.4-13.2 29.6-29.6 29.6s-29.6-13.2-29.6-29.6v-177.6h-177.6c-16.4 0-29.6-13.2-29.6-29.6s13.2-29.6 29.6-29.6h177.6v-177.6c0-16.4 13.2-29.6 29.6-29.6s29.6 13.2 29.6 30v177.2h177.6c16 0 29.2 13.2 29.2 29.6s-13.2 29.6-29.6 29.6z" />
<glyph unicode="&#xe960;" glyph-name="preview-1_bold" d="M1006.4 462.4c-85.2 198-279.2 325.6-494.4 325.6s-409.2-128-494.4-325.6c-4-9.2-4-19.6 0-28.4 85.2-198 279.2-326 494.4-326s409.2 128 494.4 325.6c4 9.2 4 19.6 0 28.8zM512 179.6c-180.8 0-345.6 105.2-422.4 268.4 76.8 163.2 241.6 268.4 422.4 268.4s345.6-105.2 422.4-268.4c-76.8-163.2-241.6-268.4-422.4-268.4zM512 638.8c-105.2 0-190.8-85.6-190.8-190.8s85.6-190.8 190.8-190.8 190.8 85.6 190.8 190.8c0 105.2-85.6 190.8-190.8 190.8zM512 328.8c-65.6 0-119.2 53.6-119.2 119.2s53.6 119.2 119.2 119.2 119.2-53.6 119.2-119.2c0-65.6-53.6-119.2-119.2-119.2z" />
<glyph unicode="&#xe961;" glyph-name="preview-1_light" d="M997.2 458.4c-83.6 194-274 319.6-485.2 319.6s-401.6-125.6-485.2-320c-2.8-6.4-2.8-14 0-20.4 83.6-194 274-319.6 485.2-319.6s401.6 125.6 485.2 320c3.2 6.4 3.2 14 0 20.4zM512 169.6c-186.4 0-356 109.2-433.2 278.4 77.2 169.2 246.8 278.4 433.2 278.4s356-109.2 433.2-278.4c-77.2-169.2-246.8-278.4-433.2-278.4zM512 628.8c-99.6 0-180.8-81.2-180.8-180.8s81.2-180.8 180.8-180.8c99.6 0 180.8 81.2 180.8 180.8s-81.2 180.8-180.8 180.8zM512 318.8c-71.2 0-129.2 58-129.2 129.2s58 129.2 129.2 129.2c71.2 0 129.2-58 129.2-129.2s-58-129.2-129.2-129.2z" />
<glyph unicode="&#xe962;" glyph-name="preview-1_medium" d="M1000.8 460c-84 195.6-276 322-488.8 322s-404.8-126.4-488.8-322.4c-3.6-7.6-3.6-16.4 0-23.6 84.4-195.6 276.4-322 489.2-322s404.8 126.4 488.8 322.4c3.2 7.2 3.2 16-0.4 23.6zM512 173.6c-184 0-352 107.6-428.8 274.4 76.8 166.8 244.8 274.4 428.8 274.4s352-107.6 428.8-274.4c-76.8-166.8-244.8-274.4-428.8-274.4zM512 632.8c-102 0-184.8-82.8-184.8-184.8s82.8-184.8 184.8-184.8c102 0 184.8 82.8 184.8 184.8s-82.8 184.8-184.8 184.8zM512 322.8c-69.2 0-125.2 56-125.2 125.2s56 125.2 125.2 125.2 125.2-56 125.2-125.2c0-69.2-56-125.2-125.2-125.2z" />
<glyph unicode="&#xe963;" glyph-name="preview-2_bold" d="M1002 462.4v0c-84.4 184-276.4 302.4-489.2 302.4-213.2 0-405.2-119.2-489.2-303.2-4-9.2-4-19.2 0-28.4 84.4-184 276.4-302.8 489.2-302.8 213.2 0 405.2 119.2 489.2 303.2 4 9.2 4 19.6 0 28.8zM512.8 199.6c-180 0-343.6 97.2-420 248 76.4 150.8 240.4 248 420 248s343.2-97.2 420-248c-76.8-150.8-240.4-248-420-248zM512.8 626c-98.4 0-178.4-80-178.4-178.4s80-178.4 178.4-178.4 178.4 80 178.4 178.4-80 178.4-178.4 178.4zM512.8 337.6c-60.4 0-109.6 49.2-109.6 109.6s49.2 109.6 109.6 109.6 109.6-49.2 109.6-109.6c0-60.4-49.2-109.6-109.6-109.6z" />
<glyph unicode="&#xe964;" glyph-name="preview-2_light" d="M1028.4 458.8v0c-89.2 194-292 319.2-516.4 319.2-224.8 0-427.6-125.2-516.4-319.6-2.8-6.8-2.8-14 0-21.2 88.8-194 291.6-319.2 516.4-319.2s427.6 125.2 516.4 319.6c2.8 6.8 2.8 14.4 0 21.2zM512 169.6c-200 0-382 109.2-464.8 278.4 83.2 169.2 265.2 278.4 464.8 278.4s381.6-109.2 464.8-278.4c-83.2-169.2-265.2-278.4-464.8-278.4zM512 628.8c-99.6 0-180.8-81.2-180.8-180.8s81.2-180.8 180.8-180.8c99.6 0 180.8 81.2 180.8 180.8s-81.2 180.8-180.8 180.8zM512 318.8c-71.2 0-129.2 58-129.2 129.2s58 129.2 129.2 129.2c71.2 0 129.2-58 129.2-129.2s-58-129.2-129.2-129.2z" />
<glyph unicode="&#xe965;" glyph-name="preview-2_medium" d="M996.4 459.6v0c-83.2 181.6-273.2 299.2-483.6 299.2-210.8 0-400.8-117.6-483.6-300-3.6-7.6-3.6-16 0-23.6 83.2-181.6 273.2-299.2 483.6-299.2 210.8 0 400.8 117.6 483.6 300 3.6 8 3.6 16 0 23.6zM939.6 447.6c-76.8-154.4-243.6-254-426.8-254s-350 99.6-426.8 254c76.8 154.4 243.6 254 426.8 254s349.6-99.6 426.8-254zM512.8 620c-95.2 0-172.4-77.2-172.4-172.4s77.2-172.4 172.4-172.4 172.4 77.2 172.4 172.4-77.2 172.4-172.4 172.4zM628.4 447.2c0-63.6-52-115.6-115.6-115.6s-115.6 52-115.6 115.6c0 63.6 52 115.6 115.6 115.6s115.6-52 115.6-115.6z" />
<glyph unicode="&#xe966;" glyph-name="preview-3_bold" d="M888 466c-65.6 114.8-213.2 188.8-376 188.8s-310.4-74-376-188.8c-6.4-11.2-6.4-24.4 0-35.6 65.6-114.8 213.2-188.8 376-188.8s310.4 74 376 188.8c6.4 11.2 6.4 24.4 0 35.6zM377.2 448c0 74.4 60.4 134.8 134.8 134.8s134.8-60.4 134.8-134.8c0-74.4-60.4-134.8-134.8-134.8s-134.8 60.4-134.8 134.8zM329.2 544c-15.2-28.8-23.6-61.2-23.6-96 0-34.4 8.4-67.2 23.6-95.6-50 23.2-91.6 56-119.6 95.6 28 39.6 69.6 72.4 119.6 96zM718.4 448c0 34.4-8.4 67.2-23.6 95.6 50-23.2 91.6-56 119.6-95.6-28-39.6-69.6-72.4-119.6-96 15.2 28.8 23.6 61.6 23.6 96zM611.6 448c0 54.8-44.8 99.6-99.6 99.6s-99.6-44.8-99.6-99.6c0-54.8 44.8-99.6 99.6-99.6s99.6 44.8 99.6 99.6zM512 420c-15.2 0-28 12.8-28 28 0 15.6 12.4 28 28 28s28-12.4 28-28c0-15.2-12.8-28-28-28zM512 689.2c19.6 0 35.6 16 35.6 35.6v48.4c0 19.6-16 35.6-35.6 35.6s-35.6-16-35.6-35.6v-48.4c0-19.6 16-35.6 35.6-35.6zM512 206.4c-19.6 0-35.6-16-35.6-35.6v-48.4c0-19.6 16-35.6 35.6-35.6 20 0 35.6 15.6 35.6 35.6v48.4c0 19.6-16 35.6-35.6 35.6zM330 672c6.4-11.2 18-18 30.8-18 5.6 0 11.6 1.6 17.2 4.4l1.6 0.8c16.4 10.4 22 32 12.4 48.8l-24 42-0.4 0.4c-10.4 16.4-32 22-48.8 12.4l-0.4-0.4c-16.4-10.4-22-32-12.4-48.8l24-41.6zM684 211.2l-0.4 0.4c-10.4 16.4-32 22-48.8 12.4l-0.4-0.4c-16.4-10.4-22-31.6-12.4-48.8l24-41.6c6.4-11.2 18-18 30.8-18 5.6 0 11.6 1.2 17.2 4.8l1.6 0.8c16.4 10.4 22 32 12.4 48.8l-24 41.6zM635.2 677.6c5.6-3.2 11.2-4.8 17.6-4.8 12.4 0 23.6 6 30.8 17.6l24.4 42c5.2 8.4 6.4 18 4 27.2s-8.4 16.8-16.4 21.6c-8.4 5.2-18 6.4-27.2 4-9.6-2.4-17.2-8.4-22-16.8l-24-41.6c-5.2-8.4-6.4-18-4-27.2 2.4-9.6 8.4-17.2 16.8-22zM390 231.6c-8.4 5.2-18 6.4-27.2 4-9.6-2.4-17.2-8.4-22-16.8l-24-41.6c-5.2-8.4-6.4-18-4-27.2 2.4-9.6 8.4-17.2 16.8-22 5.6-3.2 11.2-4.8 17.6-4.8 12.8 0 24.8 6.8 31.2 18l24 41.6c5.2 8.4 6.4 18 4 27.2s-8.4 16.8-16.4 21.6z" />
<glyph unicode="&#xe967;" glyph-name="preview-3_light" d="M879.2 460.8c-63.6 111.6-208 183.6-367.2 183.6s-303.6-72-367.2-183.6c-4.8-8-4.8-17.6 0-25.6 63.6-111.6 207.6-183.6 367.2-183.6s303.6 72 367.2 183.6c4.8 8 4.8 17.6 0 25.6zM367.2 448c0 80 64.8 144.8 144.8 144.8s144.8-64.8 144.8-144.8-64.8-144.8-144.8-144.8-144.8 64.8-144.8 144.8zM315.6 448c0-43.6 14.4-84 38.4-116.8-66.8 25.2-122.4 65.6-156.4 116.8 34 51.2 89.6 92 156.8 117.2-24.4-32.8-38.8-73.2-38.8-117.2zM708.4 448c0 43.6-14.4 84-38.4 116.8 66.8-25.2 122.8-65.6 156.4-116.8-34-51.2-89.6-92-156.8-117.2 24.4 32.8 38.8 73.2 38.8 117.2zM601.6 448c0 49.6-40 89.6-89.6 89.6s-89.6-40-89.6-89.6c0-49.6 40-89.6 89.6-89.6s89.6 40 89.6 89.6zM512 486c20.8 0 38-17.2 38-38s-17.2-38-38-38-38 17.2-38 38c0 20.8 17.2 38 38 38zM512 678.4c14 0 25.6 11.6 25.6 25.6v48.4c0 14-11.6 25.6-25.6 25.6s-25.6-11.6-25.6-25.6v-48.4c0-14 11.6-25.6 25.6-25.6zM512 217.6c-14 0-25.6-11.6-25.6-25.6v-48.4c0-14 11.6-25.6 25.6-25.6 14.4 0 25.6 11.2 25.6 25.6v48.4c0 14-11.6 25.6-25.6 25.6zM362 656.8c4.4-8 12.8-12.8 22-12.8 4 0 8.4 1.2 12.8 3.2l0.8 0.4c12 7.6 16.4 22.8 9.2 35.2l-24 42c-7.6 12-23.2 16-35.6 8.8-12-7.6-16.4-22.8-9.2-35.2l24-41.6zM663.2 239.2c-7.6 12-23.2 16-35.6 8.8-12-7.6-16.4-22.8-9.2-35.2l24-41.6c4.4-8 12.8-12.8 22-12.8 4 0 8.4 1.2 12.8 3.2l0.8 0.4c12 7.6 16.4 22.8 9.2 35.2l-24 42zM627.2 647.6c4-2.4 8.4-3.6 12.8-3.6 9.2 0 17.2 4.4 22.4 12.8l24 41.6c3.6 6 4.4 12.8 2.8 19.6s-6 12.4-12 15.6c-6 3.6-12.8 4.4-19.6 2.8-6.4-1.6-12-6-15.6-12l-24-41.6c-3.6-6-4.4-12.8-2.8-19.6 1.6-6.4 6-12 12-15.6zM396.8 248c-6 3.6-12.8 4.4-19.6 2.8-6.4-1.6-12-6-15.6-12l-24-41.6c-3.6-6-4.4-12.8-2.8-19.6 1.6-6.4 6-12 12-15.6 4-2.4 8.4-3.6 12.8-3.6 9.2 0 18 4.8 22.4 12.8l24 41.6c3.6 6 4.4 12.8 2.8 19.6s-6 12.4-12 15.6z" />
<glyph unicode="&#xe968;" glyph-name="preview-3_medium" d="M882.8 462.8c-64.4 112.8-210 185.6-370.8 185.6s-306.4-72.8-370.8-185.6c-5.2-9.2-5.2-20.4 0-29.6 64.4-112.8 210-185.6 370.8-185.6s306.4 72.8 370.8 185.6c5.2 9.2 5.2 20.4 0 29.6zM371.2 448c0 77.6 63.2 140.8 140.8 140.8s140.8-63.2 140.8-140.8c0-77.6-63.2-140.8-140.8-140.8s-140.8 63.2-140.8 140.8zM311.6 448c0-40 12-77.2 32-108.4-60 24.4-110 62-141.2 108.4 31.2 46.4 81.2 84 141.2 108.4-20-31.2-32-68.4-32-108.4zM712.4 448c0 40-12 77.2-32 108.4 60-24.4 110-62 141.2-108.4-31.2-46.4-81.2-84-141.2-108.4 20 31.2 32 68.4 32 108.4zM605.6 448c0 51.6-42 93.6-93.6 93.6s-93.6-42-93.6-93.6c0-51.6 42-93.6 93.6-93.6s93.6 42 93.6 93.6zM512 482c18.8 0 34-15.2 34-34 0-18.4-15.6-34-34-34s-34 15.6-34 34c0 18.8 15.2 34 34 34zM512 674.4c16.4 0 29.6 13.2 29.6 29.6v48.4c0 16.4-13.2 29.6-29.6 29.6s-29.6-13.2-29.6-29.6v-48.4c0-16.4 13.2-29.6 29.6-29.6zM512 221.6c-16.4 0-29.6-13.2-29.6-29.6v-48.4c0-16.4 13.2-29.6 29.6-29.6s29.6 13.2 29.6 29.6v48.4c0 16.4-13.2 29.6-29.6 29.6zM358.4 654.8c5.2-9.2 15.2-14.8 25.6-14.8 4.8 0 9.6 1.2 14.4 4l0.8 0.4c14 8.4 18.4 26.4 10.4 40.4l-24 42c-8.4 14-26.4 18.4-40.4 10.4l-0.4-0.4c-14-8.4-18.4-26.4-10.4-40.4l24-41.6zM666 241.6c-8.4 14-26.4 18.4-40.4 10.4l-0.4-0.4c-14-8.8-18.4-26.8-10.4-40.8l24-41.6c5.2-9.2 15.2-14.8 25.6-14.8 4.8 0 9.6 1.2 14.4 4l0.8 0.4c14 8.8 18.4 26.8 10.4 40.8l-24 42zM625.2 644c4.8-2.8 9.6-4 14.8-4 10.4 0 20 5.2 25.6 14.4l24.4 42c4 6.8 5.2 15.2 3.2 22.8-2.4 7.6-7.2 14-14 18-7.2 4-15.2 5.2-22.8 3.2s-14-7.2-18-14l-24-41.6c-4-7.2-5.2-15.2-3.2-22.8s7.2-14 14-18zM398.8 251.6c-6.8 4-15.2 5.2-22.8 3.2s-14-7.2-18-14l-24-41.6c-4-6.8-5.2-15.2-3.2-22.8s7.2-14 14-18c4.8-2.8 9.6-4 14.8-4 10.8 0 20.8 5.6 26 14.8l24 41.6c4 6.8 5.2 15.2 3.2 22.8-2.4 7.6-7.2 14-14 18z" />
<glyph unicode="&#xe969;" glyph-name="right_bold" d="M363.6 795.6l-50.8-50.8 296.8-296.8-296.8-296.8 50.8-50.8 347.6 347.6z" />
<glyph unicode="&#xe96a;" glyph-name="right_double_bold" d="M792 473.6l-304.8 304.8c-14.4 13.6-36.4 13.2-50.4-0.4l-0.4-0.4c-13.6-14.4-13.2-36.8 0.4-50.4l279.2-279.2-279.6-279.6c-13.6-14.4-13.6-36 0-50 6.4-6.8 15.6-10.8 25.6-10.8 9.6 0 18.4 4 25.6 10.8l304.8 304.8c13.6 14.4 13.6 36.8-0.4 50.4zM588 423.2c13.6 14.4 13.6 36.8-0.4 50.4l-304.8 304.8c-14.4 13.6-36.8 13.2-50.4-0.4l-0.4-0.4c-13.6-14.4-13.2-36.8 0.4-50.4l279.2-279.2-279.6-279.6c-13.6-14.4-13.6-36 0-50 6.4-6.8 15.6-10.8 25.6-10.8 8.8 0 17.6 3.6 24.8 10l305.6 305.6z" />
<glyph unicode="&#xe96b;" glyph-name="right_double_light" d="M784.8 466.8l-304.4 304.4c-10 9.6-26.4 9.6-36.4-0.4-10-10.4-9.6-26.8 0-36.4l286-286.8-286.4-286.4c-9.6-10-9.6-26.4 0-36 4.8-4.8 11.2-7.6 18.4-7.6 6.8 0 13.2 2.8 18.4 8.4l304.4 304.4c10 10.4 9.6 26.8 0 36.4zM580.4 466.8l-304.4 304.4c-10 9.6-26.4 9.6-36.4-0.4-10-10.4-9.6-26.8 0-36.4l286-286.8-286.4-286.4c-9.6-10-9.6-26.4 0-36 4.8-4.8 11.2-7.6 18.4-7.6 6.4 0 12.4 2.8 18 8l304.8 304.8c10 10.4 9.6 26.8 0 36.4z" />
<glyph unicode="&#xe96c;" glyph-name="right_double_medium" d="M787.2 468.8l-304.8 304.8c-12 11.6-30.4 11.2-42-0.4-11.2-12-11.2-30.4 0.4-42l283.6-283.6-283.6-283.6c-11.2-12-11.2-30 0-41.6 5.2-5.6 12.8-8.8 21.2-8.8 8 0 15.6 3.2 20.8 8.4l304.8 304.8c11.2 12 10.8 30.8-0.4 42zM583.2 469.2l-304.8 304.8c-12 11.6-30.4 11.2-42-0.4-11.2-12-11.2-30.4 0.4-42l283.2-284-283.6-283.6c-11.2-12-11.2-30 0-41.6 5.2-5.6 12.8-8.8 21.2-8.8 7.2 0 14.4 3.2 20.8 8.4l305.2 305.2c11.2 12 10.8 30.8-0.4 42z" />
<glyph unicode="&#xe96d;" glyph-name="right_light" d="M363.6 781.2l-36.4-36.4 296.8-296.8-296.8-296.8 36.4-36.4 333.2 333.2z" />
<glyph unicode="&#xe96e;" glyph-name="right_medium" d="M363.6 786.8l-42-42 296.8-296.8-296.8-296.8 42-42 338.8 338.8z" />
<glyph unicode="&#xe96f;" glyph-name="right_rounded_bold" d="M689.2 480.4v3.2h-3.2l-142 142-50.8-50.8 91.6-91.2h-274.8v-71.6h274.4l-91.2-90.8 50.8-50.8 141.6 141.6h3.6v3.6l32.4 32.4zM512 788c-187.6 0-340-152.4-340-340s152.4-340 340-340 340 152.4 340 340c0 187.6-152.4 340-340 340zM512 179.2c-148.4 0-268.8 120.4-268.8 268.8s120.4 268.8 268.8 268.8c148.4 0 268.8-120.4 268.8-268.8s-120.4-268.8-268.8-268.8z" />
<glyph unicode="&#xe970;" glyph-name="right_rounded_light" d="M507.6 574.8l101.6-101.2h-289.2v-51.6h288.8l-101.2-100.8 36.4-36.4 163.2 163.2-163.2 163.2zM512 778c-182 0-330-148-330-330s148-330 330-330 330 148 330 330-148 330-330 330zM512 169.2c-153.6 0-278.8 125.2-278.8 278.8s125.2 278.8 278.8 278.8 278.8-125.2 278.8-278.8c0-153.6-125.2-278.8-278.8-278.8z" />
<glyph unicode="&#xe971;" glyph-name="right_rounded_medium" d="M544 616.8l-42-42 97.6-97.2h-283.6v-59.6h283.2l-97.2-96.8 42-42 138.8 138.8h0.4v0.4l29.6 29.6zM512 782c-184 0-334-150-334-334s150-334 334-334 334 150 334 334-150 334-334 334zM512 173.2c-151.6 0-274.8 123.2-274.8 274.8s123.2 274.8 274.8 274.8 274.8-123.2 274.8-274.8c0-151.6-123.2-274.8-274.8-274.8z" />
<glyph unicode="&#xe972;" glyph-name="right-rounded-2_bold" d="M398.4 574.8l126.4-126.8-126.4-126.8 50-50.8 177.6 177.6-177.6 177.6zM512 788c-187.6 0-340-152.4-340-340s152.4-340 340-340 340 152.4 340 340c0 187.6-152.4 340-340 340zM512 179.2c-148.4 0-268.8 120.4-268.8 268.8s120.4 268.8 268.8 268.8c148.4 0 268.8-120.4 268.8-268.8s-120.4-268.8-268.8-268.8z" />
<glyph unicode="&#xe973;" glyph-name="right-rounded-2_light" d="M412.4 575.2l126.8-126.8-126.8-126.8 36-36.8 163.2 164-163.2 163.2zM512 778c-182 0-330-148-330-330s148-330 330-330 330 148 330 330-148 330-330 330zM512 169.2c-153.6 0-278.8 125.2-278.8 278.8s125.2 278.8 278.8 278.8 278.8-125.2 278.8-278.8c0-153.6-125.2-278.8-278.8-278.8z" />
<glyph unicode="&#xe974;" glyph-name="right-rounded-2_medium" d="M406.8 574.8l126.8-126.8-126.8-126.8 41.6-42.4 169.2 169.2-169.2 169.2zM512 782c-184 0-334-150-334-334s150-334 334-334 334 150 334 334-150 334-334 334zM512 173.2c-151.6 0-274.8 123.2-274.8 274.8s123.2 274.8 274.8 274.8 274.8-123.2 274.8-274.8c0-151.6-123.2-274.8-274.8-274.8z" />
<glyph unicode="&#xe975;" glyph-name="right-rounded-3_bold" d="M467.6 795.6l-50.8-50.8 296.8-296.8-296.8-296.8 50.8-50.8 347.6 347.6zM259.6 795.6l-50.8-50.8 296.8-296.8-296.8-296.8 50.8-50.8 347.6 347.6z" />
<glyph unicode="&#xe976;" glyph-name="right-rounded-3_light" d="M467.6 781.2l-36.4-36.4 296.8-296.8-296.8-296.8 36.4-36.4 333.2 333.2zM259.6 781.2l-36.4-36.4 296.8-296.8-296.8-296.8 36.4-36.4 333.2 333.2z" />
<glyph unicode="&#xe977;" glyph-name="right-rounded-3_medium" d="M467.6 786.8l-42-42 296.8-296.8-296.8-296.8 42-42 338.8 338.8zM259.6 786.8l-42-42 296.8-296.8-296.8-296.8 42-42 338.8 338.8z" />
<glyph unicode="&#xe978;" glyph-name="right-simple_bold" d="M897.6 415.6l32.4 32.4-32.4 32.4v3.2h-3.2l-311.6 311.6-50.8-50.8 261.2-260.8h-691.6v-71.6h691.2l-260.8-260.4 50.8-50.8 311.2 311.2h3.6z" />
<glyph unicode="&#xe979;" glyph-name="right-simple_light" d="M582.8 780.8l-36.4-36.4 271.2-270.8h-706v-51.6h705.6l-270.8-270.4 36.4-36.4 332.8 332.8z" />
<glyph unicode="&#xe97a;" glyph-name="right-simple_medium" d="M893.6 417.6l30.4 30.4-30.4 30.4v1.2h-1.2l-309.6 310.4-45.2-45.2 265.6-265.2h-697.6v-63.6h696.4l-264.4-264 45.2-45.2 309.2 309.2h1.6z" />
<glyph unicode="&#xe97b;" glyph-name="send_bold" d="M841.6 502l-609.6 281.2c-24.8 10.8-53.6 4-70.4-16.8-17.2-20.8-17.6-50.8-1.6-72.8l184.4-245.6-184-245.6c-16.8-21.2-16.4-52 0.8-72.8 10.8-13.6 28-22 46-22 9.2 0 17.6 2 25.2 5.6l609.2 281.2c20.8 10 34.4 30.8 34.4 54 0 22.8-13.6 43.6-34.4 53.6zM418 426.8c9.6 12.8 9.6 30 0 42.8l-170.8 227.6 540.4-248.8-540.4-249.6 170.8 228z" />
<glyph unicode="&#xe97c;" glyph-name="send_light" d="M837.6 492.8l-609.6 281.2c-20.8 9.2-44.8 3.2-58.8-14-14.4-17.6-14.8-42.4-1.2-60.8l188.8-251.2-188.8-252c-14-17.6-13.6-43.2 0.8-60.4 9.2-11.6 23.2-18.4 38.4-18.4 7.6 0 14.8 1.6 20.8 4.8l609.2 281.2c17.2 8.4 28.4 26 28.4 44.8 0.4 19.2-10.8 36.8-28 44.8zM410 432.8c6.8 9.2 6.8 21.6 0 30.8l-194.4 259.2 596-274.4-596-275.2 194.4 259.6z" />
<glyph unicode="&#xe97d;" glyph-name="send_medium" d="M839.2 496.4l-609.6 281.2c-22.4 10-48.4 3.6-63.2-15.2-15.2-18.8-16-46-1.6-65.6l187.2-248.8-186.8-249.2c-15.2-19.2-14.8-46.8 0.8-65.2 9.6-12.4 25.2-19.6 41.6-19.6 8.4 0 16 1.6 22.8 5.2l608.8 280.8c18.8 8.8 30.8 28 30.8 48.4s-12 39.2-30.8 48zM413.2 430.4c8 10.8 8 24.8 0 35.6l-184.8 246.4 573.6-264.4-574-264.4 185.2 246.8z" />
<glyph unicode="&#xe97e;" glyph-name="send-2_bold" d="M837.2 782l-0.8 0.4c-11.2 7.2-25.2 7.6-37.2 1.2l-609.2-341.6c-12-6.4-19.2-19.6-18.4-33.6v-1.2c1.6-13.6 10.4-25.2 23.2-30l194.8-72c13.2-4.8 27.6-2 37.2 7.6l14.8 13.6c-2-4.8-3.2-9.6-3.2-14.8v-168c0-15.2 9.2-28.4 23.2-33.6 4-1.6 8-2.4 12.4-2.4 10.8 0 20.4 4.4 27.2 12.4l92.8 108.4 114.8-42.4c10-4 21.6-3.2 30.8 2.8 9.2 5.6 15.6 14.4 17.2 24.8l95.2 533.2c2 13.2-3.6 27.2-14.8 35.2zM598.8 294c-14 4.8-29.6 0.8-39.2-10.4l-46.4-54v59.6l221.6 298.8c11.2 15.2 9.2 36-4.8 48-3.6 3.2-8 5.6-12.4 7.2l54.4 30.4-74.4-416.4-98.8 36.8zM649.6 605.2l-252-236.4-101.6 37.6 353.6 198.8z" />
<glyph unicode="&#xe97f;" glyph-name="send-2_light" d="M831.6 773.6v0c-8.4 5.6-18.8 6-27.2 1.2l-609.6-341.6c-8.4-4.4-13.6-14-13.2-24.4v-0.4c1.2-10 7.6-18.4 16.8-21.6l194.8-72c9.6-3.6 20-1.6 26.8 5.2l91.6 86-57.6-78c-3.6-4.8-5.6-10.4-5.6-16.4v-168c0-10.8 6.8-20.8 16.8-24.4 2.8-1.2 6-1.6 8.8-1.6 7.6 0 14.8 3.2 19.2 8.8l97.6 113.6 121.2-44.8c7.2-3.2 15.6-2.4 22 1.6 6.8 4 11.6 10.8 12.8 18l95.2 533.2c1.6 10-2.4 20-10.4 25.6zM499.6 302.4l223.6 301.6c8 10.8 6.4 26-3.6 34.8s-25.2 8.8-34.8-0.4l-288.8-270.8-127.6 47.2 512.8 288.4-80-449.2-109.2 40.8c-10 3.6-21.6 0.4-28.4-7.6l-64-74.4v89.6z" />
<glyph unicode="&#xe980;" glyph-name="send-2_medium" d="M833.6 776.8l-0.4 0.4c-9.2 6-21.2 6.4-31.2 1.2l-609.2-342c-10-5.2-16-16.4-15.2-28v-0.8c1.2-11.6 8.8-21.2 19.2-25.2l194.8-72c10.8-4 23.2-1.6 30.8 6l59.6 56-31.2-42.4c-4-5.6-6.4-12-6.4-18.8v-168c0-12.4 7.6-24 19.2-28 3.2-1.2 6.8-2 10.4-2 8.8 0 17.2 3.6 22.4 10.4l95.6 111.6 118.8-44c8.4-3.2 18-2.4 25.6 2 8 4.8 13.2 12.4 14.4 20.4l95.2 533.2c2 12-2.8 23.6-12.4 30zM503.6 301.2l222.8 300.4c9.2 12.8 7.6 30-4 40-11.6 10.4-28.8 10-40-0.8l-286.8-268.8-117.2 43.2 498 280-78-436-105.2 39.2c-11.6 4-24.8 0.4-32.8-8.8l-56.8-66.4v78z" />
<glyph unicode="&#xe981;" glyph-name="send-3_bold" d="M882 480.4l-710.4 304.4c-10.8 4.8-24 3.6-34-3.2-10-6.4-16-18-16-29.6l-0.4-236.8c0-17.6 13.6-33.2 31.2-35.6l241.6-32-241.6-32c-18-2.4-31.2-17.2-31.2-35.6l0.4-236.8c0-11.6 6-23.2 15.6-29.6 5.6-4 12.4-6 20-6 4.8 0 10 1.2 14.4 3.2l710.4 304c13.2 5.6 21.6 18.8 21.6 32.8 0 14.4-8.4 27.2-21.6 32.8zM627.6 419.2c18 2 48.4 5.2 48.4 28.8 0 12-8 27.2-45.6 32l-438 66.8 0.4 151.6 584-250.4-584-250.4-0.4 151.6 431.2 69.2c1.2 0.4 2.4 0.4 4 0.8z" />
<glyph unicode="&#xe982;" glyph-name="send-3_light" d="M878 471.2l-710.4 304.4c-8 3.2-17.2 2.4-24.4-2.4s-11.6-12.8-11.6-21.6l-0.4-236.8c0-12.8 9.6-23.6 22.4-25.6l316-42-316-42c-13.2-1.6-22.4-12.4-22.4-25.6l0.4-236.8c0-8.4 4.4-16.8 11.2-21.2 4-2.8 8.8-4.4 14.4-4.4 3.6 0 7.2 0.8 10 2.4l710.8 304c9.6 4 15.6 13.6 15.6 23.6 0 10.8-6 20-15.6 24zM667.6 422.4c13.2 1.6 22.4 12.4 22.4 25.6 0 12.8-9.6 23.6-22.4 25.6l-485.2 64.8 0.4 175.2 619.2-265.6-619.2-265.6-0.4 175.2 485.2 64.8z" />
<glyph unicode="&#xe983;" glyph-name="send-3_medium" d="M879.6 475.2l-710.4 304.4c-9.2 4-20 2.8-28-2.8-8.4-5.6-13.2-14.8-13.2-24.8l-0.4-236.8c0-14.8 11.2-27.6 26-29.6l286.4-38-286.4-38c-15.2-2-26-14.4-26-29.6l0.4-236.8c0-9.6 5.2-19.2 13.2-24.4 4.8-3.2 10.4-5.2 16.4-5.2 4 0 8 0.8 12 2.8l710.8 304c10.8 4.8 18 15.6 18 27.2-0.8 12-8 22.8-18.8 27.6zM668 418.4c15.2 2 26 14.4 26 29.6 0 14.8-11.2 27.6-26 29.6l-481.6 64 0.4 165.6 605.2-259.2-605.2-259.6-0.4 165.6 481.6 64.4z" />
<glyph unicode="&#xe984;" glyph-name="grid4_medium1" d="M465.2 623.6h-164.4v146.4h35.6v-110.8h93.6v110.8h35.2zM477.2 611.6h-188.4v170.4h59.6v-110.8h69.6v110.8h59.2v-170.4zM312.8 635.6h140.4v122.4h-11.2v-110.8h-117.6v110.8h-11.6v-122.4zM594 623.6h-164v146.4h35.2v-110.8h93.6v110.8h35.2zM606 611.6h-188v170.4h59.2v-110.8h69.6v110.8h59.2v-170.4zM442 635.6h140v122.4h-11.2v-110.8h-117.6v110.8h-11.2v-122.4zM336.4 494.8h-146.4v35.6h110.8v93.2h-110.8v35.6h146.4zM348.4 482.8h-170.4v59.6h110.8v69.2h-110.8v59.6h170.4v-188.4zM202 506.8h122.4v140.4h-122.4v-11.6h110.8v-117.2h-110.8v-11.6zM465.2 494.8h-164.4v164.4h164.4c0 0 0-164.4 0-164.4zM336.4 530.4h93.2v93.2h-93.2v-93.2zM477.2 482.8h-188.4v188.4h188.4v-188.4zM312.8 506.8h140.4v140.4h-140.4v-140.4zM441.6 518.4h-117.2v117.2h117.2v-117.2zM348.4 542.4h69.2v69.2h-69.2v-69.2zM594 494.8h-164.4v164.4h164.4v-164.4zM465.2 530.4h93.2v93.2h-93.2v-93.2zM606 482.8h-188.4v188.4h188.4v-188.4zM441.6 506.8h140.4v140.4h-140.4v-140.4zM570.4 518.4h-117.2v117.2h117.2v-117.2zM477.2 542.4h69.2v69.2h-69.2v-69.2zM336.4 366h-146.4v35.2h110.8v93.6h-110.8v35.6h146.4zM348.4 354h-170.4v59.2h110.8v69.6h-110.8v59.6h170.4v-188.4zM202 378h122.4v140.4h-122.4v-11.6h110.8v-117.6h-110.8v-11.2zM465.2 366h-164.4v164.4h164.4c0 0 0-164.4 0-164.4zM336.4 401.2h93.2v93.2h-93.2v-93.2zM477.2 354h-188.4v188.4h188.4v-188.4zM312.8 378h140.4v140.4h-140.4v-140.4zM441.6 389.2h-117.2v117.2h117.2v-117.2zM348.4 413.2h69.2v69.2h-69.2v-69.2zM594 366h-164.4v164.4h164.4v-164.4zM465.2 401.2h93.2v93.2h-93.2v-93.2zM606 354h-188.4v188.4h188.4v-188.4zM441.6 378h140.4v140.4h-140.4v-140.4zM570.4 389.2h-117.2v117.2h117.2v-117.2zM477.2 413.2h69.2v69.2h-69.2v-69.2zM723.2 623.6h-164.4v146.4h35.2v-110.8h93.6v110.8h35.6zM735.2 611.6h-188.4v170.4h59.2v-110.8h69.6v110.8h59.6v-170.4zM570.8 635.6h140.4v122.4h-11.6v-110.8h-117.6v110.8h-11.2v-122.4zM723.2 494.8h-164.4v164.4h164.4v-164.4zM594 530.4h93.2v93.2h-93.2v-93.2zM735.2 482.8h-188.4v188.4h188.4v-188.4zM570.8 506.8h140.4v140.4h-140.4v-140.4zM699.2 518.4h-117.2v117.2h117.2v-117.2zM606 542.4h69.2v69.2h-69.2v-69.2zM723.2 366h-164.4v164.4h164.4v-164.4zM594 401.2h93.2v93.2h-93.2v-93.2zM735.2 354h-188.4v188.4h188.4v-188.4zM570.8 378h140.4v140.4h-140.4v-140.4zM699.2 389.2h-117.2v117.2h117.2v-117.2zM606 413.2h69.2v69.2h-69.2v-69.2zM336.4 236.8h-146.4v35.6h110.8v93.2h-110.8v35.6h146.4zM348.4 224.8h-170.4v59.6h110.8v69.2h-110.8v59.6h170.4v-188.4zM202 248.8h122.4v140.4h-122.4v-11.6h110.8v-117.2h-110.8v-11.6zM465.2 236.8h-164.4v164.4h164.4c0 0 0-164.4 0-164.4zM336.4 272.4h93.2v93.2h-93.2v-93.2zM477.2 224.8h-188.4v188.4h188.4v-188.4zM312.8 248.8h140.4v140.4h-140.4v-140.4zM441.6 260.4h-117.2v117.2h117.2v-117.2zM348.4 284.4h69.2v69.2h-69.2v-69.2zM594 236.8h-164.4v164.4h164.4v-164.4zM465.2 272.4h93.2v93.2h-93.2v-93.2zM606 224.8h-188.4v188.4h188.4v-188.4zM441.6 248.8h140.4v140.4h-140.4v-140.4zM570.4 260.4h-117.2v117.2h117.2v-117.2zM477.2 284.4h69.2v69.2h-69.2v-69.2zM723.2 236.8h-164.4v164.4h164.4v-164.4zM594 272.4h93.2v93.2h-93.2v-93.2zM735.2 224.8h-188.4v188.4h188.4v-188.4zM570.8 248.8h140.4v140.4h-140.4v-140.4zM699.2 260.4h-117.2v117.2h117.2v-117.2zM606 284.4h69.2v69.2h-69.2v-69.2zM834 494.8h-146.4v164.4h146.4v-35.6h-110.8v-93.2h110.8zM846 482.8h-170.4v188.4h170.4v-59.6h-110.8v-69.2h110.8v-59.6zM699.6 506.8h122.4v11.6h-110.8v117.2h110.8v11.6h-122.4v-140.4zM834 366h-146.4v164.4h146.4v-35.6h-110.8v-93.6h110.8zM846 354h-170.4v188.4h170.4v-59.6h-110.8v-69.6h110.8v-59.2zM699.6 378h122.4v11.2h-110.8v117.6h110.8v11.6h-122.4v-140.4zM834 236.8h-146.4v164.4h146.4v-35.6h-110.8v-93.2h110.8zM846 224.8h-170.4v188.4h170.4v-59.6h-110.8v-69.2h110.8v-59.6zM699.6 248.8h122.4v11.6h-110.8v117.2h110.8v11.6h-122.4v-140.4zM465.2 126h-35.2v110.8h-93.6v-110.8h-35.6v146.4h164.4zM477.2 114h-59.2v110.8h-69.6v-110.8h-59.6v170.4h188.4v-170.4zM442 138h11.2v122.4h-140.4v-122.4h11.6v110.8h117.6v-110.8zM594 126h-35.2v110.8h-93.6v-110.8h-35.2v146.4h164zM606 114h-59.2v110.8h-69.6v-110.8h-59.2v170.4h188v-170.4zM570.8 138h11.2v122.4h-140v-122.4h11.2v110.8h117.6v-110.8zM723.2 126h-35.6v110.8h-93.6v-110.8h-35.2v146.4h164.4zM735.2 114h-59.6v110.8h-69.6v-110.8h-59.2v170.4h188.4v-170.4zM699.6 138h11.6v122.4h-140.4v-122.4h11.2v110.8h117.6v-110.8z" />
<glyph unicode="&#xe985;" glyph-name="skype_two" horiz-adv-x="902" d="M738.555 389.486c4.501 19.88 6.752 40.135 6.752 61.14 0 157.538-129.407 285.445-289.571 285.445-16.879 0-33.383-1.5-49.512-4.126-25.881 16.129-56.639 25.506-89.272 25.506-92.648 0-167.666-73.893-167.666-165.415 0-30.382 8.252-59.264 22.881-83.645-3.751-18.379-6.001-37.509-6.001-57.389 0-157.538 129.407-285.445 289.571-285.445 18.004 0 36.009 1.5 52.888 4.876 23.631-12.378 50.637-19.505 79.519-19.505 92.648 0 167.666 74.268 167.666 165.415 0.375 26.256-6.001 51.012-17.254 73.143zM604.273 314.467c-13.503-18.755-33.008-33.383-58.889-43.886-25.506-10.503-55.889-15.754-90.397-15.754-41.635 0-76.519 7.127-103.525 21.38-19.505 10.503-35.634 24.381-47.637 41.635-12.378 17.629-18.379 34.884-18.379 51.388 0 10.503 4.126 19.505 12.003 27.007s18.004 11.253 30.382 11.253c9.752 0 18.379-3.001 25.506-8.627 6.752-5.626 12.378-13.878 16.879-24.381 5.251-11.628 10.878-21.38 16.504-28.882s13.878-13.503 24.381-18.755c10.503-4.876 24.756-7.502 42.010-7.502 24.006 0 43.511 4.876 58.139 15.004 14.629 9.752 21.38 21.38 21.38 35.634 0 11.253-3.751 20.255-11.253 27.007-7.877 7.127-18.379 12.753-30.758 16.879-13.128 4.126-31.133 8.252-53.263 13.128-30.007 6.377-55.514 13.878-75.768 22.505-20.63 8.627-37.509 20.63-49.887 36.009s-18.755 34.508-18.755 57.014c0 21.38 6.752 40.885 19.505 57.764 12.753 16.504 31.883 29.632 56.264 38.634 24.006 8.627 52.513 13.128 84.771 13.128 25.881 0 48.387-3.001 67.516-8.627 19.13-6.001 35.259-13.878 47.637-23.631 12.753-9.752 22.13-20.255 28.132-31.133s9.002-22.13 9.002-32.633c0-10.127-4.126-19.505-12.003-27.382-7.877-8.252-18.004-12.378-29.632-12.378-10.878 0-19.13 2.626-24.756 7.502-5.251 4.876-11.253 12.003-17.254 22.505-7.127 13.503-16.129 24.006-25.881 31.883-9.752 7.502-25.881 10.878-48.387 10.878-20.63 0-37.509-4.126-50.262-12.378-12.003-7.877-18.004-16.879-18.004-27.382 0-6.377 1.875-12.003 5.626-16.504 4.126-4.876 9.752-9.377 17.254-12.753 7.502-3.751 15.379-6.752 23.256-9.002s21.38-5.626 40.135-9.752c23.256-4.876 45.011-10.503 64.141-16.504s36.009-13.503 49.512-22.13c13.878-9.002 24.756-20.255 32.633-33.758 7.877-13.878 11.628-30.758 11.628-50.262 0.75-24.006-6.001-45.386-19.505-64.141z" />
<glyph unicode="&#xe986;" glyph-name="cart-1_bold" horiz-adv-x="902" d="M168.416 147.927l-0.375 488.369 525.878 0.375 0.375-488.369-525.878-0.375zM233.307 571.030l0.375-357.837 395.347 0.375-0.375 357.837-395.347-0.375zM287.32 603.663v88.897c0 14.253 4.876 28.132 13.878 38.634 10.127 12.003 24.756 19.13 39.76 19.13h181.169c0 0 0 0 0.375 0 15.004 0 29.257-6.752 39.385-18.755 9.002-10.503 13.878-24.381 13.878-38.634v-88.897h-65.266v81.020h-157.538v-81.020l-65.641-0.375z" />
<glyph unicode="&#xe987;" glyph-name="cart-1_light" horiz-adv-x="902" d="M190.171 146.426v481.993h522.127v-481.993h-522.127zM220.929 597.662v-420.103h460.237v420.103h-460.237zM316.952 613.040v94.898c0 10.503 3.751 20.63 10.127 28.507 7.127 8.627 17.254 13.503 27.382 13.128h193.172c0 0 0 0 0 0 10.503 0 20.255-4.876 27.382-13.503 6.377-7.877 10.127-18.004 10.127-28.507v-94.898h-30.758v94.898c0 3.376-1.125 6.752-3.001 8.627-0.75 0.75-2.251 2.251-3.751 2.251v0h-193.172c-1.5 0-3.001-1.5-3.751-2.251-1.875-2.251-3.001-5.251-3.001-8.627v-94.898l-30.758 0.375z" />
<glyph unicode="&#xe988;" glyph-name="cart-1_medium" horiz-adv-x="902" d="M737.055 149.802h-570.139v493.621h569.764v-493.621zM226.18 209.067h451.235v375.092h-451.235v-375.092zM591.895 613.79h-59.264c0 44.636-36.009 80.645-80.645 80.645v59.264c77.269 0 139.909-62.64 139.909-139.909zM371.341 613.79h-59.264c0 77.269 62.64 139.909 139.909 139.909v-59.264c-44.636 0-80.645-36.009-80.645-80.645z" />
<glyph unicode="&#xe989;" glyph-name="cart-2_bold" horiz-adv-x="902" d="M737.055 149.802h-570.139v493.621h569.764v-493.621zM226.18 209.067h451.235v375.092h-451.235v-375.092zM591.895 613.79h-59.264c0 44.636-36.009 80.645-80.645 80.645v59.264c77.269 0 139.909-62.64 139.909-139.909zM371.341 613.79h-59.264c0 77.269 62.64 139.909 139.909 139.909v-59.264c-44.636 0-80.645-36.009-80.645-80.645z" />
<glyph unicode="&#xe98a;" glyph-name="cart-2_light" horiz-adv-x="902" d="M740.806 150.552h-567.138v486.494h567.138v-486.494zM201.799 178.309h511.625v430.98h-511.625v-430.98zM587.768 623.168h-27.757c0 56.639-46.136 102.775-102.775 102.775s-102.4-46.136-102.4-102.775h-27.757c0 72.018 58.514 130.532 130.532 130.532s130.157-58.514 130.157-130.532z" />
<glyph unicode="&#xe98b;" glyph-name="cart-2_medium" horiz-adv-x="902" d="M725.802 150.552h-568.639v489.87h568.639v-489.87zM198.048 191.437h487.244v408.1h-487.244v-408.1zM576.141 620.167h-40.885c0 51.763-42.010 93.773-93.773 93.773s-93.773-42.010-93.773-93.773h-40.885c0 74.268 60.39 134.658 134.658 134.658s134.658-60.765 134.658-134.658z" />
<glyph unicode="&#xe98c;" glyph-name="cart-3_bold" horiz-adv-x="902" d="M697.295 150.552h-492.12l-31.133 31.133v492.12l9.002 21.755 49.512 49.512 21.755 9.002 393.096 0.75 22.13-9.002 49.887-49.887 9.002-21.755v-492.12l-31.133-31.508zM235.933 212.442h430.23v448.234l-31.508 31.508-367.215-0.75-31.133-31.133-0.375-447.859zM205.175 704.563h492.12v-61.89h-492.12v61.89zM451.235 493.386c-76.894 0-139.534 62.64-139.534 139.534h61.89c0-42.76 34.884-77.269 77.269-77.269s77.269 34.884 77.269 77.269h61.89c0.375-76.894-61.89-139.534-138.784-139.534z" />
<glyph unicode="&#xe98d;" glyph-name="cart-3_light" horiz-adv-x="902" d="M705.922 150.552h-521.752l-14.629 14.629v521.752l4.501 10.503 52.138 52.138 10.503 4.501 416.727 0.75 10.503-4.501 52.513-52.888 4.126-10.503v-521.752l-14.629-14.629zM198.799 179.81h492.495v501.122l-44.261 44.261-404.349-0.375-43.886-43.886v-501.122zM184.17 701.562h521.752v-29.257h-521.752v29.257zM445.234 514.391c-71.642 0-129.782 58.139-129.782 129.407h29.257c0-55.514 45.011-100.525 100.525-100.525s100.525 45.011 100.525 100.525h29.257c-0.375-71.267-58.514-129.407-129.782-129.407z" />
<glyph unicode="&#xe98e;" glyph-name="cart-3_medium" horiz-adv-x="902" d="M698.796 149.802h-509.374l-21.38 21.38v509.374l6.377 15.004 50.637 51.388 15.004 6.377 406.974 0.375 15.379-6.377 51.763-51.763 6.377-15.004v-509.374l-21.755-21.38zM210.801 192.563h466.614v479.367l-39.010 39.010-389.345-0.75-38.259-38.259v-479.367zM189.421 701.937h509.374v-42.76h-509.374v42.76zM444.108 504.639c-73.518 0-133.533 60.015-133.533 133.533h42.76c0-50.262 40.885-90.772 90.772-90.772 50.262 0 90.772 40.885 90.772 90.772h42.76c0-73.518-60.015-133.533-133.533-133.533z" />
<glyph unicode="&#xe98f;" glyph-name="cart-4_bold" horiz-adv-x="902" d="M646.658 287.461c0 0 0 0 0 0h-354.086c-12.378 0-23.256 8.252-26.632 20.255l-113.278 411.1c-4.126 14.629 4.501 30.007 19.13 34.133s30.007-4.501 34.133-19.13l107.651-390.845 312.076-0.375 61.515 224.68h-311.326c-15.379 0-27.757 12.378-27.757 27.757s12.378 27.757 27.757 27.757h347.335c8.627 0 16.879-4.126 22.13-10.878s7.127-15.754 4.501-24.006l-76.519-279.818c-3.376-12.378-14.253-20.63-26.632-20.63zM310.201 150.177c-35.259 0-64.516 28.882-64.516 64.141 0 35.634 28.882 64.141 64.516 64.141s64.516-28.882 64.516-64.141c-0.375-35.634-29.257-64.141-64.516-64.141zM310.201 241.7c-15.004 0-27.382-12.378-27.382-27.382s12.378-27.382 27.382-27.382c15.004 0 27.382 12.378 27.382 27.382s-12.378 27.382-27.382 27.382zM629.029 150.177c-35.259 0-64.141 28.882-64.141 64.141 0 35.634 28.882 64.141 64.141 64.141 35.634 0 64.141-28.882 64.141-64.141 0.375-35.634-28.507-64.141-64.141-64.141zM629.029 241.7c-15.004 0-27.382-12.378-27.382-27.382s12.378-27.382 27.382-27.382 27.382 12.378 27.382 27.382c0.375 15.004-12.003 27.382-27.382 27.382z" />
<glyph unicode="&#xe990;" glyph-name="cart-4_light" horiz-adv-x="902" d="M657.536 301.714h-367.59c-5.626 0-10.503 3.376-12.003 8.627l-140.659 426.479c-2.251 6.752 1.5 13.878 8.252 16.129s13.878-1.5 16.129-8.252l137.659-417.852h348.46l72.393 265.19h-343.959c-7.127 0-12.753 5.626-12.753 12.753s5.626 12.753 12.753 12.753h360.463c4.126 0 7.877-1.875 10.127-4.876s3.376-7.127 2.251-10.878l-79.144-290.696c-1.5-5.626-6.377-9.377-12.378-9.377zM308.325 149.802c-33.383 0-60.39 27.007-60.39 60.39s27.007 60.39 60.39 60.39 60.39-27.007 60.39-60.39c0-33.383-27.007-60.39-60.39-60.39zM308.325 245.075c-19.13 0-34.884-15.754-34.884-34.884s15.754-34.884 34.884-34.884 34.884 15.754 34.884 34.884c0 19.13-15.754 34.884-34.884 34.884zM639.531 149.802c-33.383 0-60.39 27.007-60.39 60.39s27.007 60.39 60.39 60.39c33.383 0 60.39-27.007 60.39-60.39s-27.007-60.39-60.39-60.39zM639.531 245.075c-19.13 0-34.884-15.754-34.884-34.884s15.754-34.884 34.884-34.884 34.884 15.754 34.884 34.884c0 19.13-15.754 34.884-34.884 34.884z" />
<glyph unicode="&#xe991;" glyph-name="cart-4_medium" horiz-adv-x="902" d="M660.911 298.714h-359.713c-7.877 0-15.379 5.251-17.629 12.753l-138.034 417.477c-3.376 9.752 2.251 20.255 12.003 23.631s20.255-2.251 23.631-12.003l133.533-404.724h331.956l67.516 246.81h-328.58c-10.503 0-18.755 8.252-18.755 18.755s8.252 18.755 18.755 18.755h353.336c6.001 0 11.253-2.626 14.629-7.502 3.376-4.501 4.876-10.503 3.376-16.129l-77.644-284.319c-2.251-7.877-9.752-13.503-18.379-13.503zM318.828 149.802c-36.009 0-65.266 29.257-65.266 65.266s29.257 65.266 65.266 65.266 65.266-29.257 65.266-65.266-29.257-65.266-65.266-65.266zM318.828 243.2c-15.379 0-28.132-12.378-28.132-28.132 0-15.379 12.378-28.132 28.132-28.132s28.132 12.378 28.132 28.132c0 15.379-12.378 28.132-28.132 28.132zM643.282 149.802c-36.009 0-65.266 29.257-65.266 65.266s29.257 65.266 65.266 65.266c36.009 0 65.266-29.257 65.266-65.266s-29.257-65.266-65.266-65.266zM643.282 243.2c-15.379 0-28.132-12.378-28.132-28.132 0-15.379 12.378-28.132 28.132-28.132 15.379 0 28.132 12.378 28.132 28.132 0 15.379-12.753 28.132-28.132 28.132z" />
<glyph unicode="&#xe992;" glyph-name="cart-5_bold" horiz-adv-x="902" d="M638.781 269.832h-343.209c-12.003 0-22.881 8.252-26.256 19.88l-121.53 429.105c-4.126 14.629 4.501 29.632 18.755 33.758 14.629 4.126 29.632-4.501 33.758-18.755l115.903-409.225h322.579c15.004 0 27.382-12.003 27.382-27.382s-12.378-27.382-27.382-27.382zM653.034 360.229h-383.344c-12.378 0-22.881 8.252-26.256 19.88l-51.763 188.671c-2.251 8.252-0.75 16.879 4.501 23.631s13.128 10.878 21.755 10.878h488.744c8.627 0 16.504-4.126 21.755-10.878s6.752-15.754 4.501-24.006l-53.638-188.671c-3.376-11.253-14.253-19.505-26.256-19.505zM290.696 414.617h342.084l38.259 134.283h-417.477l37.134-134.283zM298.948 149.802c-28.132 0-51.012 22.881-51.012 51.012s22.881 51.012 51.012 51.012 51.012-22.881 51.012-51.012-22.881-51.012-51.012-51.012zM298.948 221.445c-11.253 0-20.63-9.377-20.63-20.63s9.377-20.63 20.63-20.63 20.63 9.377 20.63 20.63c0 11.253-9.377 20.63-20.63 20.63zM653.034 149.802c-28.132 0-51.012 22.881-51.012 51.012s22.881 51.012 51.012 51.012 51.012-22.881 51.012-51.012-22.881-51.012-51.012-51.012zM653.034 221.445c-11.253 0-20.63-9.377-20.63-20.63s9.377-20.63 20.63-20.63 20.63 9.377 20.63 20.63c0 11.253-9.377 20.63-20.63 20.63z" />
<glyph unicode="&#xe993;" glyph-name="cart-5_light" horiz-adv-x="902" d="M636.155 286.336h-354.086c-5.626 0-10.503 3.751-12.003 9.002l-125.281 442.608c-1.875 6.752 1.875 13.503 8.627 15.379s13.503-1.875 15.379-8.627l123.030-433.606h344.709c6.752 0 12.378-5.626 12.378-12.378-0.375-6.752-6.001-12.378-12.753-12.378zM650.784 379.358h-394.971c-5.626 0-10.503 3.751-12.003 9.002l-53.263 194.673c-1.125 3.751-0.375 7.877 2.251 10.878 2.251 3.001 6.001 4.876 10.127 4.876h504.123c4.126 0 7.502-1.875 10.127-4.876 2.251-3.001 3.001-7.127 2.251-10.878l-55.138-194.673c-3.001-5.251-7.877-9.002-13.503-9.002zM265.19 404.114h376.217l48.387 169.541h-471.115l46.511-169.541zM285.82 149.802c-27.007 0-49.512 22.13-49.512 49.512s22.13 49.512 49.512 49.512 49.512-22.13 49.512-49.512-22.13-49.512-49.512-49.512zM285.82 223.695c-13.503 0-24.381-10.878-24.381-24.381s10.878-24.381 24.381-24.381c13.503 0 24.381 10.878 24.381 24.381 0 13.128-10.878 24.381-24.381 24.381zM650.784 149.802c-27.382 0-49.512 22.13-49.512 49.512s22.13 49.512 49.512 49.512 49.512-22.13 49.512-49.512-22.13-49.512-49.512-49.512zM650.784 223.695c-13.503 0-24.381-10.878-24.381-24.381s10.878-24.381 24.381-24.381 24.381 10.878 24.381 24.381c0 13.128-10.878 24.381-24.381 24.381z" />
<glyph unicode="&#xe994;" glyph-name="cart-5_medium" horiz-adv-x="977" d="M706.446 224.442h-375.413c-8.851 0-16.688 5.887-19.124 14.414l-132.893 469.245c-2.964 10.516 3.126 21.519 13.683 24.483 10.516 2.964 21.519-3.126 24.483-13.683l128.873-454.831h360.39c11.003 0 19.855-8.851 19.855-19.855 0-10.963-8.851-19.774-19.855-19.774zM722.078 323.187h-418.979c-8.933 0-16.81 5.969-19.124 14.617l-56.641 206.343c-1.665 5.969-0.406 12.384 3.37 17.256s9.582 7.796 15.835 7.796h534.331c6.212 0 12.1-2.923 15.835-7.877 3.776-4.954 4.954-11.369 3.248-17.419l-58.63-206.343c-2.558-8.486-10.394-14.373-19.246-14.373zM318.203 362.856h388.852l47.383 166.633h-481.954l45.719-166.633zM334.932 79.774c-32.482 0-58.955 26.473-58.955 58.955s26.473 58.955 58.955 58.955 58.955-26.473 58.955-58.955-26.392-58.955-58.955-58.955zM334.932 157.975c-10.597 0-19.246-8.608-19.246-19.246s8.689-19.246 19.246-19.246c10.597 0 19.246 8.608 19.246 19.246 0.041 10.638-8.567 19.246-19.246 19.246zM722.078 79.774c-32.482 0-58.955 26.473-58.955 58.955s26.473 58.955 58.955 58.955 58.955-26.473 58.955-58.955-26.392-58.955-58.955-58.955zM722.078 157.975c-10.597 0-19.246-8.608-19.246-19.246s8.608-19.246 19.246-19.246 19.246 8.608 19.246 19.246c0 10.638-8.608 19.246-19.246 19.246z" />
<glyph unicode="&#xe995;" glyph-name="cart-6_bold" horiz-adv-x="902" d="M718.3 150.552h-550.634c-9.377 0-18.004 4.126-24.006 11.253s-8.252 16.504-6.752 25.881l61.89 321.453c3.001 14.629 15.754 25.506 30.758 25.506h444.484c15.754 0 28.882-11.628 31.133-27.007l44.261-321.453c1.125-9.002-1.5-18.004-7.502-24.756-6.001-7.127-14.629-10.878-23.631-10.878zM205.55 213.193h476.741l-35.634 258.813h-391.221l-49.887-258.813zM602.397 477.257c-16.504 0-30.382 12.753-31.133 29.632 0 1.875-12.378 184.92-127.156 184.92-0.375 0-0.75 0-0.75 0-114.403-0.75-117.404-181.544-117.404-183.42 0-17.254-14.253-31.133-31.133-31.133 0 0 0 0-0.375 0-17.254 0-31.133 14.253-31.133 31.508 0.375 84.396 38.634 244.56 179.669 245.685 0.375 0 1.125 0 1.5 0 139.159 0 184.92-159.414 189.421-244.185 1.125-17.254-12.378-32.258-29.632-33.008-0.75 0-1.5 0-1.875 0z" />
<glyph unicode="&#xe996;" glyph-name="cart-6_light" horiz-adv-x="902" d="M743.056 150.177h-583.642c-4.501 0-8.627 1.875-11.253 5.251-3.001 3.376-3.751 7.877-3.001 12.003l65.641 340.583c1.125 6.752 7.502 12.003 14.253 12.003h471.115c7.502 0 13.503-5.626 14.629-12.753l46.886-340.583c0.75-4.126-0.75-8.627-3.376-11.628-3.001-3.001-7.127-4.876-11.253-4.876zM177.043 179.81h548.759l-42.76 311.326h-445.984l-60.015-311.326zM620.026 496.762c-7.877 0-14.253 6.001-14.629 13.878 0 2.251-13.878 213.802-153.037 213.802-0.375 0-0.75 0-1.125 0-139.534-1.125-142.91-210.801-142.91-212.677 0-8.252-6.752-14.629-14.629-14.629v0c-8.252 0-14.629 6.752-14.629 14.629 0.375 83.27 37.134 241.184 172.167 242.309 0.375 0 0.75 0 1.125 0 133.533 0 177.793-157.914 182.67-241.559 0.375-8.252-5.626-15.004-13.878-15.754-0.75 0-0.75 0-1.125 0z" />
<glyph unicode="&#xe997;" glyph-name="cart-6_medium" horiz-adv-x="902" d="M725.802 149.802h-570.139c-6.377 0-12.378 3.001-16.504 7.877s-5.626 11.628-4.501 18.004l64.141 333.081c1.875 10.127 10.878 17.629 21.38 17.629h460.237c10.878 0 19.88-7.877 21.38-18.755l45.761-333.081c0.75-6.001-1.125-12.378-5.251-17.254s-10.127-7.502-16.504-7.502zM181.919 192.938h519.502l-39.76 289.571h-423.853l-55.889-289.571zM605.773 488.135c-11.253 0-21.005 9.002-21.38 20.255 0 1.875-13.128 201.799-142.16 201.799-0.375 0-0.75 0-1.125 0-129.782-1.125-132.407-198.799-132.407-200.674 0-12.003-9.752-21.38-21.755-21.38 0 0 0 0 0 0-12.003 0-21.38 9.752-21.38 21.755 0.375 83.645 37.884 242.684 175.168 243.81 0.375 0 1.125 0 1.5 0 135.783 0 180.794-158.664 185.295-242.684 0.75-12.003-8.627-22.13-20.255-22.881-0.75 0-1.125 0-1.5 0z" />
<glyph unicode="&#xe998;" glyph-name="cart-7_bold" horiz-adv-x="902" d="M450.485 658.426c0.375 0 0.75 0 1.125 0zM626.778 150.177h-351.461c-29.632 0-53.638 24.006-53.638 53.638v351.461c0 29.632 24.006 53.638 53.638 53.638h351.461c29.632 0 53.638-24.006 53.638-53.638v-351.461c0-29.632-24.006-53.638-53.638-53.638zM275.317 558.652c-1.875 0-3.376-1.5-3.376-3.376v-351.461c0-1.875 1.5-3.376 3.376-3.376h351.461c1.875 0 3.376 1.5 3.376 3.376v351.461c0 1.875-1.5 3.376-3.376 3.376h-351.461zM600.147 585.659h-50.262c0 64.891-44.261 117.779-98.649 117.779s-98.649-52.888-98.649-117.779h-50.262c0 92.648 66.766 168.041 148.911 168.041s148.911-75.393 148.911-168.041z" />
<glyph unicode="&#xe999;" glyph-name="cart-7_light" horiz-adv-x="902" d="M635.405 149.802h-368.715c-22.881 0-41.635 18.755-41.635 41.635v368.715c0 22.881 18.755 41.635 41.635 41.635h368.715c22.881 0 41.635-18.755 41.635-41.635v-368.715c0-22.881-18.755-41.635-41.635-41.635zM266.69 578.157c-10.127 0-18.004-8.252-18.004-18.004v-368.715c0-10.127 8.252-18.004 18.004-18.004h368.715c10.127 0 18.004 8.252 18.004 18.004v368.715c0 10.127-8.252 18.004-18.004 18.004h-368.715zM592.645 592.035h-23.631c0 76.144-52.888 138.409-118.154 138.409s-117.779-62.265-117.779-138.409h-23.631c0 89.272 63.766 161.664 141.785 161.664s141.41-72.393 141.41-161.664z" />
<glyph unicode="&#xe99a;" glyph-name="cart-7_medium" horiz-adv-x="902" d="M632.779 149.802h-361.588c-25.506 0-46.511 21.005-46.511 46.511v361.963c0 25.506 21.005 46.511 46.511 46.511h361.963c25.506 0 46.511-21.005 46.511-46.511v-361.963c-0.375-25.881-21.005-46.511-46.886-46.511zM271.191 569.905c-6.377 0-12.003-5.626-12.003-12.003v-361.963c0-6.377 5.626-12.003 12.003-12.003h361.963c6.752 0 12.003 5.251 12.003 12.003v361.963c0 6.752-5.251 12.003-12.003 12.003-0.375 0-361.963 0-361.963 0zM596.771 589.41h-34.508c0 71.642-49.512 129.782-110.277 129.782s-110.277-58.139-110.277-129.782h-34.508c0 90.772 64.891 164.29 144.785 164.29s144.785-73.893 144.785-164.29z" />
<glyph unicode="&#xe99b;" glyph-name="cart-8_bold" horiz-adv-x="902" d="M689.793 151.678h-492.495v492.495h492.495v-492.495zM244.56 198.939h397.972v397.972h-397.972v-397.972zM583.642 622.793h-47.262c0 46.136-41.635 83.645-92.648 83.645s-92.648-37.509-92.648-83.645h-47.262c0 72.018 62.64 130.907 139.909 130.907s139.909-58.514 139.909-130.907zM329.33 564.278h228.806v-47.262h-228.806v47.262z" />
<glyph unicode="&#xe99c;" glyph-name="cart-8_light" horiz-adv-x="902" d="M684.167 149.052h-489.495v489.495h489.87v-489.495zM216.803 171.182h445.609v445.234h-445.609v-445.234zM572.765 630.295h-22.13c0 55.889-49.887 101.65-111.027 101.65s-111.402-45.761-111.402-101.65h-22.13c0 68.267 59.64 123.405 133.158 123.405s133.533-55.514 133.533-123.405zM319.203 554.901h240.434v-22.13h-240.434v22.13z" />
<glyph unicode="&#xe99d;" glyph-name="cart-8_medium" horiz-adv-x="902" d="M688.668 150.552h-490.245v490.245h490.245v-490.245zM230.681 182.81h425.729v425.729h-425.729v-425.729zM579.516 627.294h-32.258c0 51.763-46.511 94.148-103.525 94.148s-103.525-42.385-103.525-94.148h-32.258c0 69.767 60.765 126.406 135.783 126.406s135.783-56.639 135.783-126.406zM325.955 559.027h235.182v-32.258h-235.182v32.258z" />
<glyph unicode="&#xe99e;" glyph-name="cart-9_bold" horiz-adv-x="902" d="M652.284 265.705h-354.837c-10.503 0-20.63 3.376-29.257 10.127-12.003 7.877-18.755 21.38-18.379 35.634 0 0.375 0 1.125 0 1.5 0 8.627 2.626 17.254 7.127 24.756l16.879 50.262-48.387 255.062-2.251 8.252c-5.251-1.5-10.503-2.626-16.504-2.626h-53.638c-28.882 0-52.138 23.631-52.138 52.138s23.631 52.888 52.138 52.888h54.013c10.878 0 21.38-3.376 30.007-9.377h13.878c0.375 0 0.75 0 1.125 0 19.13 0.75 36.384-12.378 40.885-31.133l4.876-19.505h360.463c60.015 0 107.276 0 107.276-41.26v-215.678c0-20.63-15.379-38.259-36.009-40.885l-277.943-35.259h201.049c26.256 0 47.262-21.38 47.262-47.262s-21.38-47.637-47.637-47.637zM284.695 636.671l44.261-234.432 379.968 48.387v184.545c-9.002 0.75-24.381 1.5-50.262 1.5 0 0-373.966 0-373.966 0zM319.578 149.802c-33.383 0-60.765 26.632-60.765 59.264s27.382 59.264 60.765 59.264 60.765-26.632 60.765-59.264-27.007-59.264-60.765-59.264zM319.578 230.822c-12.753 0-22.881-9.752-22.881-21.38s10.127-21.38 22.881-21.38 22.881 9.752 22.881 21.38-10.127 21.38-22.881 21.38zM623.777 149.802c-33.383 0-60.765 26.632-60.765 59.264s27.382 59.264 60.765 59.264 60.765-26.632 60.765-59.264-27.382-59.264-60.765-59.264zM623.777 230.822c-12.753 0-22.881-9.752-22.881-21.38s10.127-21.38 22.881-21.38c12.753 0 22.881 9.752 22.881 21.38s-10.127 21.38-22.881 21.38z" />
<glyph unicode="&#xe99f;" glyph-name="cart-9_light" horiz-adv-x="902" d="M674.79 268.706h-377.342c-7.502 0-15.004 2.626-21.005 7.502-8.252 5.251-13.128 14.629-12.378 24.381 0 0.375 0 1.125 0 1.5 0 6.752 2.251 13.503 6.001 19.13l19.88 59.64-52.513 275.692-7.877 31.508c-7.127-7.877-17.254-12.378-28.132-12.378h-57.389c-21.38 0-38.634 17.254-38.634 38.634s17.254 39.385 38.634 39.385h57.389c9.752 0 18.755-3.751 25.881-10.127h20.255c0.375 0 0.75 0 1.5 0 12.753 0.75 24.006-7.877 27.382-20.255l8.252-33.383h466.989c15.004 0 27.007-12.003 27.007-27.007v-229.181c0-13.503-10.127-25.131-23.631-26.632l-417.477-53.263-6.001-18.004h343.209c18.379 0 33.758-15.004 33.758-33.758 0-18.379-15.379-33.383-33.758-33.383zM290.696 302.84c0-0.375 0-0.75 0-1.125v-1.5l-0.375-1.5 2.251-1.5c1.125-0.75 2.251-1.875 4.501-1.875h377.342c3.751 0 6.752 3.001 6.752 6.752s-3.001 6.752-6.752 6.752h-380.343l23.256 69.392 434.356 55.138v229.556h-487.994l-13.503 54.013h-0.375l13.503-54.388 53.638-282.819-23.631-70.892-1.5-1.875c-0.375-1.5-1.125-2.626-1.125-4.126zM144.035 727.068c-6.377 0-12.003-5.251-12.003-12.003 0-6.377 5.251-12.003 12.003-12.003h57.389c4.501 0 8.252 2.251 10.503 6.377l3.751 7.127h-0.75l-4.126 5.251c-2.251 3.001-5.626 4.876-9.377 4.876 0 0.375-57.389 0.375-57.389 0.375zM321.078 151.303c-31.883 0-57.764 25.506-57.764 56.264s25.881 56.264 57.764 56.264 57.764-25.506 57.764-56.264-25.881-56.264-57.764-56.264zM321.078 237.199c-17.254 0-31.133-13.128-31.133-29.632s13.878-29.632 31.133-29.632 31.133 13.128 31.133 29.632-13.878 29.632-31.133 29.632zM644.407 151.303c-31.883 0-57.764 25.506-57.764 56.264s25.881 56.264 57.764 56.264c31.883 0 57.764-25.506 57.764-56.264s-25.881-56.264-57.764-56.264zM644.407 237.199c-17.254 0-31.133-13.128-31.133-29.632s13.878-29.632 31.133-29.632c17.254 0 31.133 13.128 31.133 29.632s-14.253 29.632-31.133 29.632z" />
<glyph unicode="&#xe9a0;" glyph-name="cart-9_medium" horiz-adv-x="902" d="M669.914 260.079h-373.591c-9.002 0-17.629 3.001-24.756 8.627-9.752 6.377-15.754 18.004-15.004 29.632 0 0.375 0 1.125 0 1.875 0 7.877 2.251 15.379 6.752 21.755l18.755 56.639-51.763 271.191-5.251 21.005c-7.127-4.501-15.379-7.127-24.006-7.127h-56.639c-24.756 0-45.011 20.255-45.011 45.011s20.255 45.011 45.011 45.011h56.639c10.503 0 20.255-3.751 28.132-10.127h17.629c0.375 0 0.75 0 1.125 0 16.129 0.375 29.632-10.503 34.133-27.757l7.127-27.757 106.526 2.251h349.96c18.379 0 33.383-15.004 33.383-33.383v-226.93c0-16.879-12.378-31.133-29.257-33.008l-409.225-52.138-1.5-4.876h330.831c22.13 0 40.135-18.004 40.135-40.135 0-21.755-18.004-39.76-40.135-39.76zM296.322 299.839v0zM271.191 647.924l50.262-265.19 417.852 53.263v214.552h-343.209l-124.905-2.626zM144.41 713.94c-2.626 0-4.876-2.251-4.876-4.876s2.251-4.876 4.876-4.876h56.639c2.626 0 4.126 2.251 4.501 2.626l1.5 2.626-1.875 2.626c-0.75 0.75-1.875 2.251-4.126 2.251 0-0.375-56.639-0.375-56.639-0.375zM330.456 149.802c-35.259 0-64.141 28.132-64.141 62.64s28.882 62.64 64.141 62.64 64.141-28.132 64.141-62.64-28.882-62.64-64.141-62.64zM330.456 234.948c-13.503 0-24.006-10.127-24.006-22.505s10.878-22.505 24.006-22.505 24.006 10.127 24.006 22.505c0 12.378-10.878 22.505-24.006 22.505zM650.409 149.802c-35.259 0-64.141 28.132-64.141 62.64s28.882 62.64 64.141 62.64 64.141-28.132 64.141-62.64-28.882-62.64-64.141-62.64zM650.409 234.948c-13.503 0-24.006-10.127-24.006-22.505s10.878-22.505 24.006-22.505 24.006 10.127 24.006 22.505c0 12.378-10.503 22.505-24.006 22.505z" />
<glyph unicode="&#xe9a1;" glyph-name="cart-10_bold" horiz-adv-x="902" d="M786.942 149.802h-671.789v473.741h671.789v-473.741zM184.92 219.569h532.255v334.207h-532.255v-334.207zM616.275 588.659h-69.767c0 52.513-42.76 95.273-95.273 95.273s-95.273-42.76-95.273-95.273h-69.767c0 91.147 73.893 165.040 165.040 165.040 90.772 0 165.040-73.893 165.040-165.040z" />
<glyph unicode="&#xe9a2;" glyph-name="cart-10_light" horiz-adv-x="902" d="M789.568 149.802h-676.665v464.738h676.665v-464.738zM145.911 182.81h610.274v398.722h-610.274v-398.722zM606.898 598.037h-33.008c0 67.516-55.138 122.655-122.28 122.655s-123.030-55.138-123.030-122.655h-33.008c0 85.896 69.767 155.663 155.663 155.663s155.663-69.767 155.663-155.663z" />
<glyph unicode="&#xe9a3;" glyph-name="cart-10_medium" horiz-adv-x="902" d="M787.317 149.427h-672.164v474.116h672.164v-474.116zM184.92 219.194h532.63v334.207h-532.63v-334.207zM616.275 588.659h-69.767c0 52.513-42.76 95.273-95.273 95.273s-95.273-42.76-95.273-95.273h-69.767c0 91.147 74.268 165.040 165.040 165.040 91.147 0 165.040-74.268 165.040-165.040z" />
<glyph unicode="&#xe9a4;" glyph-name="cart-11_bold" horiz-adv-x="902" d="M657.911 306.59h-388.22l-106.901 384.844h-40.135v62.265h87.771l42.76-154.913h510.5l-105.776-292.196zM316.952 369.231h297.073l60.765 167.291h-404.349l46.511-167.291zM343.959 151.678c-42.76 0-77.644 34.508-77.644 77.269s34.508 77.644 77.269 77.644c42.76 0 77.644-34.508 77.644-77.269 0 0 0 0 0 0 0-42.76-34.508-77.644-77.269-77.644zM343.959 244.325c-8.252 0-15.004-6.752-15.004-15.004s6.752-15.004 15.004-15.004 15.004 6.752 15.004 15.004c0 0 0 0 0 0 0 8.252-6.752 15.004-15.004 15.004zM588.894 151.678c-42.76 0-77.644 34.508-77.644 77.269s34.508 77.644 77.269 77.644c42.76 0 77.644-34.508 77.644-77.269 0 0 0 0 0 0 0.375-42.76-34.508-77.644-77.269-77.644zM588.894 244.325c-8.252 0-15.004-6.752-15.004-15.004s6.752-15.004 15.004-15.004c8.252 0 15.004 6.752 15.004 15.004 0 0 0 0 0 0 0 8.252-6.377 15.004-15.004 15.004z" />
<glyph unicode="&#xe9a5;" glyph-name="cart-11_light" horiz-adv-x="902" d="M681.916 285.96h-411.851l-120.404 436.232h-60.765v31.508h84.396l48.762-175.543h565.638l-105.776-292.196zM294.072 317.468h366.089l82.895 229.181h-512.375l63.39-229.181zM339.833 150.927c-37.509 0-68.267 30.382-68.267 68.267 0 37.509 30.382 68.267 68.267 68.267s68.267-30.382 68.267-68.267c0 0 0 0 0 0-0.375-37.884-30.758-68.267-68.267-68.267zM339.833 255.953c-20.255 0-36.759-16.504-36.759-36.759s16.504-36.759 36.759-36.759c20.255 0 36.759 16.504 36.759 36.759 0 0 0 0 0 0-0.375 19.88-16.504 36.384-36.759 36.759 0-0.375 0 0 0 0zM609.899 150.927c-37.509 0-68.267 30.382-68.267 68.267 0 37.509 30.382 68.267 68.267 68.267s68.267-30.382 68.267-68.267c0 0 0 0 0 0-0.375-37.884-30.758-68.267-68.267-68.267zM609.899 255.953c-20.255 0-36.759-16.504-36.759-36.759s16.504-36.759 36.759-36.759 36.759 16.504 36.759 36.759c0 0 0 0 0 0-0.375 19.88-16.504 36.384-36.759 36.759v0z" />
<glyph unicode="&#xe9a6;" glyph-name="cart-11_medium" horiz-adv-x="902" d="M667.663 295.338h-399.848l-114.028 411.851h-51.388v44.636h85.521l45.761-165.79h539.382l-105.401-290.696zM301.949 339.974h334.207l73.143 201.799h-463.238l55.889-201.799zM339.083 151.678c-39.76 0-72.018 32.258-72.018 71.642 0 39.76 32.258 72.018 71.642 72.018s72.018-32.258 72.018-71.642c0 0 0 0 0 0 0.375-40.135-31.883-72.018-71.642-72.018zM339.083 250.702c-15.004 0-27.382-12.003-27.382-27.382 0-15.004 12.003-27.382 27.382-27.382 15.004 0 27.382 12.003 27.382 27.382 0 0 0 0 0 0 0 15.004-12.378 27.007-27.382 27.382v0zM594.52 151.678c-39.76 0-72.018 32.258-72.018 71.642 0 39.76 32.258 72.018 71.642 72.018s72.018-32.258 72.018-71.642c0 0 0 0 0 0 0-40.135-32.258-72.018-71.642-72.018zM594.52 250.702c-15.004 0-27.382-12.003-27.382-27.382 0-15.004 12.003-27.382 27.382-27.382s27.382 12.003 27.382 27.382c0 0 0 0 0 0-0.375 15.004-12.378 27.007-27.382 27.382v0z" />
<glyph unicode="&#xe9a7;" glyph-name="cart-12_bold" horiz-adv-x="902" d="M760.311 310.716h-456.486l-114.028 364.214h-162.040v78.769h219.804l114.028-364.214h343.584l97.149 270.441 73.893-26.632zM436.607 212.818c0-35.010-28.381-63.39-63.39-63.39s-63.39 28.381-63.39 63.39c0 35.010 28.381 63.39 63.39 63.39s63.39-28.381 63.39-63.39zM765.187 212.818c0-35.010-28.381-63.39-63.39-63.39s-63.39 28.381-63.39 63.39c0 35.010 28.381 63.39 63.39 63.39s63.39-28.381 63.39-63.39z" />
</font>
</defs>
</svg>
